solid Spring_pin_Default_sldprt
   facet normal 1.000000e+000 1.176432e-016 0.000000e+000
      outer loop
         vertex 1.000000e+000 1.000000e-001 -2.449294e-017
         vertex 1.000000e+000 9.856159e-002 1.690008e-002
         vertex 1.000000e+000 1.176432e-016 0.000000e+000
      endloop
   endfacet
   facet normal 1.000000e+000 1.176432e-016 0.000000e+000
      outer loop
         vertex 1.000000e+000 8.730141e-002 -4.876950e-002
         vertex 1.000000e+000 9.428775e-002 -3.331398e-002
         vertex 1.000000e+000 1.176432e-016 0.000000e+000
      endloop
   endfacet
   facet normal 1.000000e+000 1.176432e-016 0.000000e+000
      outer loop
         vertex 1.000000e+000 1.176432e-016 0.000000e+000
         vertex 1.000000e+000 9.428775e-002 -3.331398e-002
         vertex 1.000000e+000 9.856159e-002 -1.690008e-002
      endloop
   endfacet
   facet normal 1.000000e+000 1.176432e-016 0.000000e+000
      outer loop
         vertex 1.000000e+000 1.176432e-016 0.000000e+000
         vertex 1.000000e+000 9.856159e-002 -1.690008e-002
         vertex 1.000000e+000 1.000000e-001 -2.449294e-017
      endloop
   endfacet
   facet normal 1.000000e+000 1.176432e-016 0.000000e+000
      outer loop
         vertex 1.000000e+000 5.243073e-002 -8.515292e-002
         vertex 1.000000e+000 6.606747e-002 -7.506723e-002
         vertex 1.000000e+000 1.176432e-016 0.000000e+000
      endloop
   endfacet
   facet normal 1.000000e+000 1.176432e-016 0.000000e+000
      outer loop
         vertex 1.000000e+000 1.176432e-016 0.000000e+000
         vertex 1.000000e+000 6.606747e-002 -7.506723e-002
         vertex 1.000000e+000 7.780357e-002 -6.282200e-002
      endloop
   endfacet
   facet normal 1.000000e+000 1.176432e-016 0.000000e+000
      outer loop
         vertex 1.000000e+000 1.176432e-016 0.000000e+000
         vertex 1.000000e+000 7.780357e-002 -6.282200e-002
         vertex 1.000000e+000 8.730141e-002 -4.876950e-002
      endloop
   endfacet
   facet normal 1.000000e+000 1.176432e-016 0.000000e+000
      outer loop
         vertex 1.000000e+000 4.244120e-003 -9.990989e-002
         vertex 1.000000e+000 2.106793e-002 -9.775552e-002
         vertex 1.000000e+000 1.176432e-016 0.000000e+000
      endloop
   endfacet
   facet normal 1.000000e+000 1.176432e-016 0.000000e+000
      outer loop
         vertex 1.000000e+000 1.176432e-016 0.000000e+000
         vertex 1.000000e+000 2.106793e-002 -9.775552e-002
         vertex 1.000000e+000 3.728565e-002 -9.278890e-002
      endloop
   endfacet
   facet normal 1.000000e+000 1.176432e-016 0.000000e+000
      outer loop
         vertex 1.000000e+000 1.176432e-016 0.000000e+000
         vertex 1.000000e+000 3.728565e-002 -9.278890e-002
         vertex 1.000000e+000 5.243073e-002 -8.515292e-002
      endloop
   endfacet
   facet normal 1.000000e+000 1.176432e-016 0.000000e+000
      outer loop
         vertex 1.000000e+000 -4.502038e-002 -8.929259e-002
         vertex 1.000000e+000 -2.928228e-002 -9.561667e-002
         vertex 1.000000e+000 1.176432e-016 0.000000e+000
      endloop
   endfacet
   facet normal 1.000000e+000 1.176432e-016 0.000000e+000
      outer loop
         vertex 1.000000e+000 1.176432e-016 0.000000e+000
         vertex 1.000000e+000 -2.928228e-002 -9.561667e-002
         vertex 1.000000e+000 -1.270178e-002 -9.919004e-002
      endloop
   endfacet
   facet normal 1.000000e+000 1.176432e-016 0.000000e+000
      outer loop
         vertex 1.000000e+000 1.176432e-016 0.000000e+000
         vertex 1.000000e+000 -1.270178e-002 -9.919004e-002
         vertex 1.000000e+000 4.244120e-003 -9.990989e-002
      endloop
   endfacet
   facet normal 1.000000e+000 1.176432e-016 0.000000e+000
      outer loop
         vertex 1.000000e+000 -8.285096e-002 -5.599748e-002
         vertex 1.000000e+000 -7.219561e-002 -6.919388e-002
         vertex 1.000000e+000 1.176432e-016 0.000000e+000
      endloop
   endfacet
   facet normal 1.000000e+000 1.176432e-016 0.000000e+000
      outer loop
         vertex 1.000000e+000 1.176432e-016 0.000000e+000
         vertex 1.000000e+000 -7.219561e-002 -6.919388e-002
         vertex 1.000000e+000 -5.946332e-002 -8.039971e-002
      endloop
   endfacet
   facet normal 1.000000e+000 1.176432e-016 0.000000e+000
      outer loop
         vertex 1.000000e+000 1.176432e-016 0.000000e+000
         vertex 1.000000e+000 -5.946332e-002 -8.039971e-002
         vertex 1.000000e+000 -4.502038e-002 -8.929259e-002
      endloop
   endfacet
   facet normal 1.000000e+000 1.176432e-016 0.000000e+000
      outer loop
         vertex 1.000000e+000 -9.963974e-002 -8.480593e-003
         vertex 1.000000e+000 -9.677330e-002 -2.519781e-002
         vertex 1.000000e+000 1.176432e-016 0.000000e+000
      endloop
   endfacet
   facet normal 1.000000e+000 1.176432e-016 0.000000e+000
      outer loop
         vertex 1.000000e+000 1.176432e-016 0.000000e+000
         vertex 1.000000e+000 -9.677330e-002 -2.519781e-002
         vertex 1.000000e+000 -9.112285e-002 -4.119013e-002
      endloop
   endfacet
   facet normal 1.000000e+000 1.176432e-016 0.000000e+000
      outer loop
         vertex 1.000000e+000 1.176432e-016 0.000000e+000
         vertex 1.000000e+000 -9.112285e-002 -4.119013e-002
         vertex 1.000000e+000 -8.285096e-002 -5.599748e-002
      endloop
   endfacet
   facet normal 1.000000e+000 1.176432e-016 0.000000e+000
      outer loop
         vertex 1.000000e+000 -9.112285e-002 4.119013e-002
         vertex 1.000000e+000 -9.677330e-002 2.519781e-002
         vertex 1.000000e+000 1.176432e-016 0.000000e+000
      endloop
   endfacet
   facet normal 1.000000e+000 1.176432e-016 0.000000e+000
      outer loop
         vertex 1.000000e+000 1.176432e-016 0.000000e+000
         vertex 1.000000e+000 -9.677330e-002 2.519781e-002
         vertex 1.000000e+000 -9.963974e-002 8.480593e-003
      endloop
   endfacet
   facet normal 1.000000e+000 1.176432e-016 0.000000e+000
      outer loop
         vertex 1.000000e+000 1.176432e-016 0.000000e+000
         vertex 1.000000e+000 -9.963974e-002 8.480593e-003
         vertex 1.000000e+000 -9.963974e-002 -8.480593e-003
      endloop
   endfacet
   facet normal 1.000000e+000 1.176432e-016 0.000000e+000
      outer loop
         vertex 1.000000e+000 -5.946332e-002 8.039971e-002
         vertex 1.000000e+000 -7.219561e-002 6.919388e-002
         vertex 1.000000e+000 1.176432e-016 0.000000e+000
      endloop
   endfacet
   facet normal 1.000000e+000 1.176432e-016 0.000000e+000
      outer loop
         vertex 1.000000e+000 1.176432e-016 0.000000e+000
         vertex 1.000000e+000 -7.219561e-002 6.919388e-002
         vertex 1.000000e+000 -8.285096e-002 5.599748e-002
      endloop
   endfacet
   facet normal 1.000000e+000 1.176432e-016 0.000000e+000
      outer loop
         vertex 1.000000e+000 1.176432e-016 0.000000e+000
         vertex 1.000000e+000 -8.285096e-002 5.599748e-002
         vertex 1.000000e+000 -9.112285e-002 4.119013e-002
      endloop
   endfacet
   facet normal 1.000000e+000 1.176432e-016 0.000000e+000
      outer loop
         vertex 1.000000e+000 -1.270178e-002 9.919004e-002
         vertex 1.000000e+000 -2.928228e-002 9.561667e-002
         vertex 1.000000e+000 1.176432e-016 0.000000e+000
      endloop
   endfacet
   facet normal 1.000000e+000 1.176432e-016 0.000000e+000
      outer loop
         vertex 1.000000e+000 1.176432e-016 0.000000e+000
         vertex 1.000000e+000 -2.928228e-002 9.561667e-002
         vertex 1.000000e+000 -4.502038e-002 8.929259e-002
      endloop
   endfacet
   facet normal 1.000000e+000 1.176432e-016 0.000000e+000
      outer loop
         vertex 1.000000e+000 1.176432e-016 0.000000e+000
         vertex 1.000000e+000 -4.502038e-002 8.929259e-002
         vertex 1.000000e+000 -5.946332e-002 8.039971e-002
      endloop
   endfacet
   facet normal 1.000000e+000 1.176432e-016 0.000000e+000
      outer loop
         vertex 1.000000e+000 3.728565e-002 9.278890e-002
         vertex 1.000000e+000 2.106793e-002 9.775552e-002
         vertex 1.000000e+000 1.176432e-016 0.000000e+000
      endloop
   endfacet
   facet normal 1.000000e+000 1.176432e-016 0.000000e+000
      outer loop
         vertex 1.000000e+000 1.176432e-016 0.000000e+000
         vertex 1.000000e+000 2.106793e-002 9.775552e-002
         vertex 1.000000e+000 4.244120e-003 9.990989e-002
      endloop
   endfacet
   facet normal 1.000000e+000 1.176432e-016 0.000000e+000
      outer loop
         vertex 1.000000e+000 1.176432e-016 0.000000e+000
         vertex 1.000000e+000 4.244120e-003 9.990989e-002
         vertex 1.000000e+000 -1.270178e-002 9.919004e-002
      endloop
   endfacet
   facet normal 1.000000e+000 1.176432e-016 0.000000e+000
      outer loop
         vertex 1.000000e+000 7.780357e-002 6.282200e-002
         vertex 1.000000e+000 6.606747e-002 7.506723e-002
         vertex 1.000000e+000 1.176432e-016 0.000000e+000
      endloop
   endfacet
   facet normal 1.000000e+000 1.176432e-016 0.000000e+000
      outer loop
         vertex 1.000000e+000 1.176432e-016 0.000000e+000
         vertex 1.000000e+000 6.606747e-002 7.506723e-002
         vertex 1.000000e+000 5.243073e-002 8.515292e-002
      endloop
   endfacet
   facet normal 1.000000e+000 1.176432e-016 0.000000e+000
      outer loop
         vertex 1.000000e+000 1.176432e-016 0.000000e+000
         vertex 1.000000e+000 5.243073e-002 8.515292e-002
         vertex 1.000000e+000 3.728565e-002 9.278890e-002
      endloop
   endfacet
   facet normal 1.000000e+000 1.176432e-016 0.000000e+000
      outer loop
         vertex 1.000000e+000 9.856159e-002 1.690008e-002
         vertex 1.000000e+000 9.428775e-002 3.331398e-002
         vertex 1.000000e+000 1.176432e-016 0.000000e+000
      endloop
   endfacet
   facet normal 1.000000e+000 1.176432e-016 0.000000e+000
      outer loop
         vertex 1.000000e+000 1.176432e-016 0.000000e+000
         vertex 1.000000e+000 9.428775e-002 3.331398e-002
         vertex 1.000000e+000 8.730141e-002 4.876950e-002
      endloop
   endfacet
   facet normal 1.000000e+000 1.176432e-016 0.000000e+000
      outer loop
         vertex 1.000000e+000 1.176432e-016 0.000000e+000
         vertex 1.000000e+000 8.730141e-002 4.876950e-002
         vertex 1.000000e+000 7.780357e-002 6.282200e-002
      endloop
   endfacet
   facet normal -1.168893e-016 9.935917e-001 1.130291e-001
      outer loop
         vertex 1.000000e+000 1.000000e-001 0.000000e+000
         vertex 1.250000e-001 9.856159e-002 1.690008e-002
         vertex 1.000000e+000 9.856159e-002 1.690008e-002
      endloop
   endfacet
   facet normal -1.146421e-016 9.744897e-001 2.244324e-001
      outer loop
         vertex 1.000000e+000 9.856159e-002 1.690008e-002
         vertex 1.250000e-001 9.856159e-002 1.690008e-002
         vertex 1.250000e-001 9.428775e-002 3.331398e-002
      endloop
   endfacet
   facet normal -1.129608e-016 9.601977e-001 2.793211e-001
      outer loop
         vertex 1.000000e+000 9.856159e-002 1.690008e-002
         vertex 1.250000e-001 9.428775e-002 3.331398e-002
         vertex 1.000000e+000 9.428775e-002 3.331398e-002
      endloop
   endfacet
   facet normal -1.085310e-016 9.225433e-001 3.858936e-001
      outer loop
         vertex 1.000000e+000 9.428775e-002 3.331398e-002
         vertex 1.250000e-001 9.428775e-002 3.331398e-002
         vertex 1.250000e-001 8.730141e-002 4.876950e-002
      endloop
   endfacet
   facet normal -1.057825e-016 8.991807e-001 4.375775e-001
      outer loop
         vertex 1.000000e+000 9.428775e-002 3.331398e-002
         vertex 1.250000e-001 8.730141e-002 4.876950e-002
         vertex 1.000000e+000 8.730141e-002 4.876950e-002
      endloop
   endfacet
   facet normal -9.929759e-017 8.440570e-001 5.362535e-001
      outer loop
         vertex 1.000000e+000 8.730141e-002 4.876950e-002
         vertex 1.250000e-001 8.730141e-002 4.876950e-002
         vertex 1.250000e-001 7.780357e-002 6.282200e-002
      endloop
   endfacet
   facet normal -9.556111e-017 8.122959e-001 5.832456e-001
      outer loop
         vertex 1.000000e+000 8.730141e-002 4.876950e-002
         vertex 1.250000e-001 7.780357e-002 6.282200e-002
         vertex 1.000000e+000 7.780357e-002 6.282200e-002
      endloop
   endfacet
   facet normal -8.720760e-017 7.412888e-001 6.711863e-001
      outer loop
         vertex 1.000000e+000 7.780357e-002 6.282200e-002
         vertex 1.250000e-001 7.780357e-002 6.282200e-002
         vertex 1.250000e-001 6.606747e-002 7.506723e-002
      endloop
   endfacet
   facet normal -8.259058e-017 7.020428e-001 7.121348e-001
      outer loop
         vertex 1.000000e+000 7.780357e-002 6.282200e-002
         vertex 1.250000e-001 6.606747e-002 7.506723e-002
         vertex 1.000000e+000 6.606747e-002 7.506723e-002
      endloop
   endfacet
   facet normal -7.260880e-017 6.171949e-001 7.868103e-001
      outer loop
         vertex 1.000000e+000 6.606747e-002 7.506723e-002
         vertex 1.250000e-001 6.606747e-002 7.506723e-002
         vertex 1.250000e-001 5.243073e-002 8.515292e-002
      endloop
   endfacet
   facet normal -6.724406e-017 5.715931e-001 8.205372e-001
      outer loop
         vertex 1.000000e+000 6.606747e-002 7.506723e-002
         vertex 1.250000e-001 5.243073e-002 8.515292e-002
         vertex 1.000000e+000 5.243073e-002 8.515292e-002
      endloop
   endfacet
   facet normal -5.592118e-017 4.753455e-001 8.797992e-001
      outer loop
         vertex 1.000000e+000 5.243073e-002 8.515292e-002
         vertex 1.250000e-001 5.243073e-002 8.515292e-002
         vertex 1.250000e-001 3.728565e-002 9.278890e-002
      endloop
   endfacet
   facet normal -4.996305e-017 4.246998e-001 9.053342e-001
      outer loop
         vertex 1.000000e+000 5.243073e-002 8.515292e-002
         vertex 1.250000e-001 3.728565e-002 9.278890e-002
         vertex 1.000000e+000 3.728565e-002 9.278890e-002
      endloop
   endfacet
   facet normal -3.762482e-017 3.198213e-001 9.474779e-001
      outer loop
         vertex 1.000000e+000 3.728565e-002 9.278890e-002
         vertex 1.250000e-001 3.728565e-002 9.278890e-002
         vertex 1.250000e-001 2.106793e-002 9.775552e-002
      endloop
   endfacet
   facet normal -3.124471e-017 2.655886e-001 9.640865e-001
      outer loop
         vertex 1.000000e+000 3.728565e-002 9.278890e-002
         vertex 1.250000e-001 2.106793e-002 9.775552e-002
         vertex 1.000000e+000 2.106793e-002 9.775552e-002
      endloop
   endfacet
   facet normal -1.824605e-017 1.550965e-001 9.878993e-001
      outer loop
         vertex 1.000000e+000 2.106793e-002 9.775552e-002
         vertex 1.250000e-001 2.106793e-002 9.775552e-002
         vertex 1.250000e-001 4.244120e-003 9.990989e-002
      endloop
   endfacet
   facet normal -1.162750e-017 9.883699e-002 9.951036e-001
      outer loop
         vertex 1.000000e+000 2.106793e-002 9.775552e-002
         vertex 1.250000e-001 4.244120e-003 9.990989e-002
         vertex 1.000000e+000 4.244120e-003 9.990989e-002
      endloop
   endfacet
   facet normal 1.657622e-018 -1.409025e-002 9.999007e-001
      outer loop
         vertex 1.000000e+000 4.244120e-003 9.990989e-002
         vertex 1.250000e-001 4.244120e-003 9.990989e-002
         vertex 1.250000e-001 -1.270178e-002 9.919004e-002
      endloop
   endfacet
   facet normal 8.324203e-018 -7.075802e-002 9.974935e-001
      outer loop
         vertex 1.000000e+000 4.244120e-003 9.990989e-002
         vertex 1.250000e-001 -1.270178e-002 9.919004e-002
         vertex 1.000000e+000 -1.270178e-002 9.919004e-002
      endloop
   endfacet
   facet normal 2.151361e-017 -1.828716e-001 9.831368e-001
      outer loop
         vertex 1.000000e+000 -1.270178e-002 9.919004e-002
         vertex 1.250000e-001 -1.270178e-002 9.919004e-002
         vertex 1.250000e-001 -2.928228e-002 9.561667e-002
      endloop
   endfacet
   facet normal 2.803644e-017 -2.383175e-001 9.711873e-001
      outer loop
         vertex 1.000000e+000 -1.270178e-002 9.919004e-002
         vertex 1.250000e-001 -2.928228e-002 9.561667e-002
         vertex 1.000000e+000 -2.928228e-002 9.561667e-002
      endloop
   endfacet
   facet normal 4.075069e-017 -3.463921e-001 9.380898e-001
      outer loop
         vertex 1.000000e+000 -2.928228e-002 9.561667e-002
         vertex 1.250000e-001 -2.928228e-002 9.561667e-002
         vertex 1.250000e-001 -4.502038e-002 8.929259e-002
      endloop
   endfacet
   facet normal 4.694211e-017 -3.990209e-001 9.169418e-001
      outer loop
         vertex 1.000000e+000 -2.928228e-002 9.561667e-002
         vertex 1.250000e-001 -4.502038e-002 8.929259e-002
         vertex 1.000000e+000 -4.502038e-002 8.929259e-002
      endloop
   endfacet
   facet normal 5.881544e-017 -4.999475e-001 8.660557e-001
      outer loop
         vertex 1.000000e+000 -4.502038e-002 8.929259e-002
         vertex 1.250000e-001 -4.502038e-002 8.929259e-002
         vertex 1.250000e-001 -5.946332e-002 8.039971e-002
      endloop
   endfacet
   facet normal 6.449734e-017 -5.482453e-001 8.363176e-001
      outer loop
         vertex 1.000000e+000 -4.502038e-002 8.929259e-002
         vertex 1.250000e-001 -5.946332e-002 8.039971e-002
         vertex 1.000000e+000 -5.946332e-002 8.039971e-002
      endloop
   endfacet
   facet normal 7.518818e-017 -6.391203e-001 7.691067e-001
      outer loop
         vertex 1.000000e+000 -5.946332e-002 8.039971e-002
         vertex 1.250000e-001 -5.946332e-002 8.039971e-002
         vertex 1.250000e-001 -7.219561e-002 6.919388e-002
      endloop
   endfacet
   facet normal 8.019711e-017 -6.816977e-001 7.316340e-001
      outer loop
         vertex 1.000000e+000 -5.946332e-002 8.039971e-002
         vertex 1.250000e-001 -7.219561e-002 6.919388e-002
         vertex 1.000000e+000 -7.219561e-002 6.919388e-002
      endloop
   endfacet
   facet normal 8.939790e-017 -7.599069e-001 6.500320e-001
      outer loop
         vertex 1.000000e+000 -7.219561e-002 6.919388e-002
         vertex 1.250000e-001 -7.219561e-002 6.919388e-002
         vertex 1.250000e-001 -8.285096e-002 5.599748e-002
      endloop
   endfacet
   facet normal 9.358976e-017 -7.955388e-001 6.059027e-001
      outer loop
         vertex 1.000000e+000 -7.219561e-002 6.919388e-002
         vertex 1.250000e-001 -8.285096e-002 5.599748e-002
         vertex 1.000000e+000 -8.285096e-002 5.599748e-002
      endloop
   endfacet
   facet normal 1.010358e-016 -8.588322e-001 5.122570e-001
      outer loop
         vertex 1.000000e+000 -8.285096e-002 5.599748e-002
         vertex 1.250000e-001 -8.285096e-002 5.599748e-002
         vertex 1.250000e-001 -9.112285e-002 4.119013e-002
      endloop
   endfacet
   facet normal 1.042900e-016 -8.864937e-001 4.627406e-001
      outer loop
         vertex 1.000000e+000 -8.285096e-002 5.599748e-002
         vertex 1.250000e-001 -9.112285e-002 4.119013e-002
         vertex 1.000000e+000 -9.112285e-002 4.119013e-002
      endloop
   endfacet
   facet normal 1.097671e-016 -9.330506e-001 3.597453e-001
      outer loop
         vertex 1.000000e+000 -9.112285e-002 4.119013e-002
         vertex 1.250000e-001 -9.112285e-002 4.119013e-002
         vertex 1.250000e-001 -9.677330e-002 2.519781e-002
      endloop
   endfacet
   facet normal 1.119900e-016 -9.519458e-001 3.062663e-001
      outer loop
         vertex 1.000000e+000 -9.112285e-002 4.119013e-002
         vertex 1.250000e-001 -9.677330e-002 2.519781e-002
         vertex 1.000000e+000 -9.677330e-002 2.519781e-002
      endloop
   endfacet
   facet normal 1.153406e-016 -9.804267e-001 1.968844e-001
      outer loop
         vertex 1.000000e+000 -9.677330e-002 2.519781e-002
         vertex 1.250000e-001 -9.677330e-002 2.519781e-002
         vertex 1.250000e-001 -9.963974e-002 8.480593e-003
      endloop
   endfacet
   facet normal 1.164682e-016 -9.900123e-001 1.409813e-001
      outer loop
         vertex 1.000000e+000 -9.677330e-002 2.519781e-002
         vertex 1.250000e-001 -9.963974e-002 8.480593e-003
         vertex 1.000000e+000 -9.963974e-002 8.480593e-003
      endloop
   endfacet
   facet normal 1.175959e-016 -9.995977e-001 2.835944e-002
      outer loop
         vertex 1.000000e+000 -9.963974e-002 8.480593e-003
         vertex 1.250000e-001 -9.963974e-002 8.480593e-003
         vertex 1.250000e-001 -9.963974e-002 -8.480593e-003
      endloop
   endfacet
   facet normal 1.175959e-016 -9.995977e-001 -2.835944e-002
      outer loop
         vertex 1.000000e+000 -9.963974e-002 8.480593e-003
         vertex 1.250000e-001 -9.963974e-002 -8.480593e-003
         vertex 1.000000e+000 -9.963974e-002 -8.480593e-003
      endloop
   endfacet
   facet normal 1.164682e-016 -9.900123e-001 -1.409813e-001
      outer loop
         vertex 1.000000e+000 -9.963974e-002 -8.480593e-003
         vertex 1.250000e-001 -9.963974e-002 -8.480593e-003
         vertex 1.250000e-001 -9.677330e-002 -2.519781e-002
      endloop
   endfacet
   facet normal 1.153406e-016 -9.804267e-001 -1.968844e-001
      outer loop
         vertex 1.000000e+000 -9.963974e-002 -8.480593e-003
         vertex 1.250000e-001 -9.677330e-002 -2.519781e-002
         vertex 1.000000e+000 -9.677330e-002 -2.519781e-002
      endloop
   endfacet
   facet normal 1.119900e-016 -9.519458e-001 -3.062663e-001
      outer loop
         vertex 1.000000e+000 -9.677330e-002 -2.519781e-002
         vertex 1.250000e-001 -9.677330e-002 -2.519781e-002
         vertex 1.250000e-001 -9.112285e-002 -4.119013e-002
      endloop
   endfacet
   facet normal 1.097671e-016 -9.330506e-001 -3.597453e-001
      outer loop
         vertex 1.000000e+000 -9.677330e-002 -2.519781e-002
         vertex 1.250000e-001 -9.112285e-002 -4.119013e-002
         vertex 1.000000e+000 -9.112285e-002 -4.119013e-002
      endloop
   endfacet
   facet normal 1.042900e-016 -8.864937e-001 -4.627406e-001
      outer loop
         vertex 1.000000e+000 -9.112285e-002 -4.119013e-002
         vertex 1.250000e-001 -9.112285e-002 -4.119013e-002
         vertex 1.250000e-001 -8.285096e-002 -5.599748e-002
      endloop
   endfacet
   facet normal 1.010358e-016 -8.588322e-001 -5.122570e-001
      outer loop
         vertex 1.000000e+000 -9.112285e-002 -4.119013e-002
         vertex 1.250000e-001 -8.285096e-002 -5.599748e-002
         vertex 1.000000e+000 -8.285096e-002 -5.599748e-002
      endloop
   endfacet
   facet normal 9.358976e-017 -7.955388e-001 -6.059027e-001
      outer loop
         vertex 1.000000e+000 -8.285096e-002 -5.599748e-002
         vertex 1.250000e-001 -8.285096e-002 -5.599748e-002
         vertex 1.250000e-001 -7.219561e-002 -6.919388e-002
      endloop
   endfacet
   facet normal 8.939790e-017 -7.599069e-001 -6.500320e-001
      outer loop
         vertex 1.000000e+000 -8.285096e-002 -5.599748e-002
         vertex 1.250000e-001 -7.219561e-002 -6.919388e-002
         vertex 1.000000e+000 -7.219561e-002 -6.919388e-002
      endloop
   endfacet
   facet normal 8.019711e-017 -6.816977e-001 -7.316340e-001
      outer loop
         vertex 1.000000e+000 -7.219561e-002 -6.919388e-002
         vertex 1.250000e-001 -7.219561e-002 -6.919388e-002
         vertex 1.250000e-001 -5.946332e-002 -8.039971e-002
      endloop
   endfacet
   facet normal 7.518818e-017 -6.391203e-001 -7.691067e-001
      outer loop
         vertex 1.000000e+000 -7.219561e-002 -6.919388e-002
         vertex 1.250000e-001 -5.946332e-002 -8.039971e-002
         vertex 1.000000e+000 -5.946332e-002 -8.039971e-002
      endloop
   endfacet
   facet normal 6.449734e-017 -5.482453e-001 -8.363176e-001
      outer loop
         vertex 1.000000e+000 -5.946332e-002 -8.039971e-002
         vertex 1.250000e-001 -5.946332e-002 -8.039971e-002
         vertex 1.250000e-001 -4.502038e-002 -8.929259e-002
      endloop
   endfacet
   facet normal 5.881544e-017 -4.999475e-001 -8.660557e-001
      outer loop
         vertex 1.000000e+000 -5.946332e-002 -8.039971e-002
         vertex 1.250000e-001 -4.502038e-002 -8.929259e-002
         vertex 1.000000e+000 -4.502038e-002 -8.929259e-002
      endloop
   endfacet
   facet normal 4.694211e-017 -3.990209e-001 -9.169418e-001
      outer loop
         vertex 1.000000e+000 -4.502038e-002 -8.929259e-002
         vertex 1.250000e-001 -4.502038e-002 -8.929259e-002
         vertex 1.250000e-001 -2.928228e-002 -9.561667e-002
      endloop
   endfacet
   facet normal 4.075069e-017 -3.463921e-001 -9.380898e-001
      outer loop
         vertex 1.000000e+000 -4.502038e-002 -8.929259e-002
         vertex 1.250000e-001 -2.928228e-002 -9.561667e-002
         vertex 1.000000e+000 -2.928228e-002 -9.561667e-002
      endloop
   endfacet
   facet normal 2.803644e-017 -2.383175e-001 -9.711873e-001
      outer loop
         vertex 1.000000e+000 -2.928228e-002 -9.561667e-002
         vertex 1.250000e-001 -2.928228e-002 -9.561667e-002
         vertex 1.250000e-001 -1.270178e-002 -9.919004e-002
      endloop
   endfacet
   facet normal 2.151361e-017 -1.828716e-001 -9.831368e-001
      outer loop
         vertex 1.000000e+000 -2.928228e-002 -9.561667e-002
         vertex 1.250000e-001 -1.270178e-002 -9.919004e-002
         vertex 1.000000e+000 -1.270178e-002 -9.919004e-002
      endloop
   endfacet
   facet normal 8.324203e-018 -7.075802e-002 -9.974935e-001
      outer loop
         vertex 1.000000e+000 -1.270178e-002 -9.919004e-002
         vertex 1.250000e-001 -1.270178e-002 -9.919004e-002
         vertex 1.250000e-001 4.244120e-003 -9.990989e-002
      endloop
   endfacet
   facet normal 1.657623e-018 -1.409025e-002 -9.999007e-001
      outer loop
         vertex 1.000000e+000 -1.270178e-002 -9.919004e-002
         vertex 1.250000e-001 4.244120e-003 -9.990989e-002
         vertex 1.000000e+000 4.244120e-003 -9.990989e-002
      endloop
   endfacet
   facet normal -1.162750e-017 9.883699e-002 -9.951036e-001
      outer loop
         vertex 1.000000e+000 4.244120e-003 -9.990989e-002
         vertex 1.250000e-001 4.244120e-003 -9.990989e-002
         vertex 1.250000e-001 2.106793e-002 -9.775552e-002
      endloop
   endfacet
   facet normal -1.824605e-017 1.550965e-001 -9.878993e-001
      outer loop
         vertex 1.000000e+000 4.244120e-003 -9.990989e-002
         vertex 1.250000e-001 2.106793e-002 -9.775552e-002
         vertex 1.000000e+000 2.106793e-002 -9.775552e-002
      endloop
   endfacet
   facet normal -3.124471e-017 2.655886e-001 -9.640865e-001
      outer loop
         vertex 1.000000e+000 2.106793e-002 -9.775552e-002
         vertex 1.250000e-001 2.106793e-002 -9.775552e-002
         vertex 1.250000e-001 3.728565e-002 -9.278890e-002
      endloop
   endfacet
   facet normal -3.762482e-017 3.198213e-001 -9.474779e-001
      outer loop
         vertex 1.000000e+000 2.106793e-002 -9.775552e-002
         vertex 1.250000e-001 3.728565e-002 -9.278890e-002
         vertex 1.000000e+000 3.728565e-002 -9.278890e-002
      endloop
   endfacet
   facet normal -4.996305e-017 4.246998e-001 -9.053342e-001
      outer loop
         vertex 1.000000e+000 3.728565e-002 -9.278890e-002
         vertex 1.250000e-001 3.728565e-002 -9.278890e-002
         vertex 1.250000e-001 5.243073e-002 -8.515292e-002
      endloop
   endfacet
   facet normal -5.592118e-017 4.753455e-001 -8.797992e-001
      outer loop
         vertex 1.000000e+000 3.728565e-002 -9.278890e-002
         vertex 1.250000e-001 5.243073e-002 -8.515292e-002
         vertex 1.000000e+000 5.243073e-002 -8.515292e-002
      endloop
   endfacet
   facet normal -6.724406e-017 5.715931e-001 -8.205372e-001
      outer loop
         vertex 1.000000e+000 5.243073e-002 -8.515292e-002
         vertex 1.250000e-001 5.243073e-002 -8.515292e-002
         vertex 1.250000e-001 6.606747e-002 -7.506723e-002
      endloop
   endfacet
   facet normal -7.260880e-017 6.171949e-001 -7.868103e-001
      outer loop
         vertex 1.000000e+000 5.243073e-002 -8.515292e-002
         vertex 1.250000e-001 6.606747e-002 -7.506723e-002
         vertex 1.000000e+000 6.606747e-002 -7.506723e-002
      endloop
   endfacet
   facet normal -8.259058e-017 7.020428e-001 -7.121348e-001
      outer loop
         vertex 1.000000e+000 6.606747e-002 -7.506723e-002
         vertex 1.250000e-001 6.606747e-002 -7.506723e-002
         vertex 1.250000e-001 7.780357e-002 -6.282200e-002
      endloop
   endfacet
   facet normal -8.720760e-017 7.412888e-001 -6.711863e-001
      outer loop
         vertex 1.000000e+000 6.606747e-002 -7.506723e-002
         vertex 1.250000e-001 7.780357e-002 -6.282200e-002
         vertex 1.000000e+000 7.780357e-002 -6.282200e-002
      endloop
   endfacet
   facet normal -9.556111e-017 8.122959e-001 -5.832456e-001
      outer loop
         vertex 1.000000e+000 7.780357e-002 -6.282200e-002
         vertex 1.250000e-001 7.780357e-002 -6.282200e-002
         vertex 1.250000e-001 8.730141e-002 -4.876950e-002
      endloop
   endfacet
   facet normal -9.929759e-017 8.440570e-001 -5.362535e-001
      outer loop
         vertex 1.000000e+000 7.780357e-002 -6.282200e-002
         vertex 1.250000e-001 8.730141e-002 -4.876950e-002
         vertex 1.000000e+000 8.730141e-002 -4.876950e-002
      endloop
   endfacet
   facet normal -1.057825e-016 8.991807e-001 -4.375775e-001
      outer loop
         vertex 1.000000e+000 8.730141e-002 -4.876950e-002
         vertex 1.250000e-001 8.730141e-002 -4.876950e-002
         vertex 1.250000e-001 9.428775e-002 -3.331398e-002
      endloop
   endfacet
   facet normal -1.085310e-016 9.225433e-001 -3.858936e-001
      outer loop
         vertex 1.000000e+000 8.730141e-002 -4.876950e-002
         vertex 1.250000e-001 9.428775e-002 -3.331398e-002
         vertex 1.000000e+000 9.428775e-002 -3.331398e-002
      endloop
   endfacet
   facet normal -1.129608e-016 9.601977e-001 -2.793211e-001
      outer loop
         vertex 1.000000e+000 9.428775e-002 -3.331398e-002
         vertex 1.250000e-001 9.428775e-002 -3.331398e-002
         vertex 1.250000e-001 9.856159e-002 -1.690008e-002
      endloop
   endfacet
   facet normal -1.146421e-016 9.744897e-001 -2.244324e-001
      outer loop
         vertex 1.000000e+000 9.428775e-002 -3.331398e-002
         vertex 1.250000e-001 9.856159e-002 -1.690008e-002
         vertex 1.000000e+000 9.856159e-002 -1.690008e-002
      endloop
   endfacet
   facet normal -1.168893e-016 9.935917e-001 -1.130291e-001
      outer loop
         vertex 1.000000e+000 9.856159e-002 -1.690008e-002
         vertex 1.250000e-001 9.856159e-002 -1.690008e-002
         vertex 1.250000e-001 1.000000e-001 0.000000e+000
      endloop
   endfacet
   facet normal -1.174552e-016 9.984018e-001 -5.651454e-002
      outer loop
         vertex 1.000000e+000 9.856159e-002 -1.690008e-002
         vertex 1.250000e-001 1.000000e-001 0.000000e+000
         vertex 1.000000e+000 1.000000e-001 0.000000e+000
      endloop
   endfacet
   facet normal -1.174552e-016 9.984018e-001 5.651454e-002
      outer loop
         vertex 1.000000e+000 1.000000e-001 0.000000e+000
         vertex 1.250000e-001 1.000000e-001 0.000000e+000
         vertex 1.250000e-001 9.856159e-002 1.690008e-002
      endloop
   endfacet
   facet normal 1.000000e+000 1.176432e-016 0.000000e+000
      outer loop
         vertex 1.250000e-001 -1.418726e-001 4.870492e-002
         vertex 1.250000e-001 -1.479542e-001 2.468919e-002
         vertex 1.250000e-001 -9.963974e-002 8.480593e-003
      endloop
   endfacet
   facet normal 1.000000e+000 1.176432e-016 0.000000e+000
      outer loop
         vertex 1.250000e-001 -9.963974e-002 8.480593e-003
         vertex 1.250000e-001 -1.479542e-001 2.468919e-002
         vertex 1.250000e-001 -1.500000e-001 1.836970e-017
      endloop
   endfacet
   facet normal 1.000000e+000 1.176432e-016 0.000000e+000
      outer loop
         vertex 1.250000e-001 -9.963974e-002 8.480593e-003
         vertex 1.250000e-001 -1.500000e-001 1.836970e-017
         vertex 1.250000e-001 -9.963974e-002 -8.480593e-003
      endloop
   endfacet
   facet normal 1.000000e+000 1.176432e-016 0.000000e+000
      outer loop
         vertex 1.250000e-001 -9.963974e-002 -8.480593e-003
         vertex 1.250000e-001 -1.500000e-001 1.836970e-017
         vertex 1.250000e-001 -1.479542e-001 -2.468919e-002
      endloop
   endfacet
   facet normal 1.000000e+000 1.176432e-016 0.000000e+000
      outer loop
         vertex 1.250000e-001 -9.963974e-002 -8.480593e-003
         vertex 1.250000e-001 -1.479542e-001 -2.468919e-002
         vertex 1.250000e-001 -9.677330e-002 -2.519781e-002
      endloop
   endfacet
   facet normal 1.000000e+000 1.176432e-016 0.000000e+000
      outer loop
         vertex 1.250000e-001 -9.677330e-002 -2.519781e-002
         vertex 1.250000e-001 -1.479542e-001 -2.468919e-002
         vertex 1.250000e-001 -1.418726e-001 -4.870492e-002
      endloop
   endfacet
   facet normal 1.000000e+000 1.176432e-016 0.000000e+000
      outer loop
         vertex 1.250000e-001 -9.677330e-002 -2.519781e-002
         vertex 1.250000e-001 -1.418726e-001 -4.870492e-002
         vertex 1.250000e-001 -9.112285e-002 -4.119013e-002
      endloop
   endfacet
   facet normal 1.000000e+000 1.176432e-016 0.000000e+000
      outer loop
         vertex 1.250000e-001 -9.112285e-002 -4.119013e-002
         vertex 1.250000e-001 -1.418726e-001 -4.870492e-002
         vertex 1.250000e-001 -1.319211e-001 -7.139211e-002
      endloop
   endfacet
   facet normal 1.000000e+000 1.176432e-016 0.000000e+000
      outer loop
         vertex 1.250000e-001 -9.112285e-002 -4.119013e-002
         vertex 1.250000e-001 -1.319211e-001 -7.139211e-002
         vertex 1.250000e-001 -8.285096e-002 -5.599748e-002
      endloop
   endfacet
   facet normal 1.000000e+000 1.176432e-016 0.000000e+000
      outer loop
         vertex 1.250000e-001 -8.285096e-002 -5.599748e-002
         vertex 1.250000e-001 -1.319211e-001 -7.139211e-002
         vertex 1.250000e-001 -1.183711e-001 -9.213191e-002
      endloop
   endfacet
   facet normal 1.000000e+000 1.176432e-016 0.000000e+000
      outer loop
         vertex 1.250000e-001 -8.285096e-002 -5.599748e-002
         vertex 1.250000e-001 -1.183711e-001 -9.213191e-002
         vertex 1.250000e-001 -7.219561e-002 -6.919388e-002
      endloop
   endfacet
   facet normal 1.000000e+000 1.176432e-016 0.000000e+000
      outer loop
         vertex 1.250000e-001 -7.219561e-002 -6.919388e-002
         vertex 1.250000e-001 -1.183711e-001 -9.213191e-002
         vertex 1.250000e-001 -1.015922e-001 -1.103586e-001
      endloop
   endfacet
   facet normal 1.000000e+000 1.176432e-016 0.000000e+000
      outer loop
         vertex 1.250000e-001 -7.219561e-002 -6.919388e-002
         vertex 1.250000e-001 -1.015922e-001 -1.103586e-001
         vertex 1.250000e-001 -5.946332e-002 -8.039971e-002
      endloop
   endfacet
   facet normal 1.000000e+000 1.176432e-016 0.000000e+000
      outer loop
         vertex 1.250000e-001 -5.946332e-002 -8.039971e-002
         vertex 1.250000e-001 -1.015922e-001 -1.103586e-001
         vertex 1.250000e-001 -8.204222e-002 -1.255750e-001
      endloop
   endfacet
   facet normal 1.000000e+000 1.176432e-016 0.000000e+000
      outer loop
         vertex 1.250000e-001 -5.946332e-002 -8.039971e-002
         vertex 1.250000e-001 -8.204222e-002 -1.255750e-001
         vertex 1.250000e-001 -4.502038e-002 -8.929259e-002
      endloop
   endfacet
   facet normal 1.000000e+000 1.176432e-016 0.000000e+000
      outer loop
         vertex 1.250000e-001 -4.502038e-002 -8.929259e-002
         vertex 1.250000e-001 -8.204222e-002 -1.255750e-001
         vertex 1.250000e-001 -6.025432e-002 -1.373660e-001
      endloop
   endfacet
   facet normal 1.000000e+000 1.176432e-016 0.000000e+000
      outer loop
         vertex 1.250000e-001 -4.502038e-002 -8.929259e-002
         vertex 1.250000e-001 -6.025432e-002 -1.373660e-001
         vertex 1.250000e-001 -2.928228e-002 -9.561667e-002
      endloop
   endfacet
   facet normal 1.000000e+000 1.176432e-016 0.000000e+000
      outer loop
         vertex 1.250000e-001 -2.928228e-002 -9.561667e-002
         vertex 1.250000e-001 -6.025432e-002 -1.373660e-001
         vertex 1.250000e-001 -3.682283e-002 -1.454100e-001
      endloop
   endfacet
   facet normal 1.000000e+000 1.176432e-016 0.000000e+000
      outer loop
         vertex 1.250000e-001 -2.928228e-002 -9.561667e-002
         vertex 1.250000e-001 -3.682283e-002 -1.454100e-001
         vertex 1.250000e-001 -1.270178e-002 -9.919004e-002
      endloop
   endfacet
   facet normal 1.000000e+000 1.176432e-016 0.000000e+000
      outer loop
         vertex 1.250000e-001 -1.270178e-002 -9.919004e-002
         vertex 1.250000e-001 -3.682283e-002 -1.454100e-001
         vertex 1.250000e-001 -1.238690e-002 -1.494877e-001
      endloop
   endfacet
   facet normal 1.000000e+000 1.176432e-016 0.000000e+000
      outer loop
         vertex 1.250000e-001 -1.270178e-002 -9.919004e-002
         vertex 1.250000e-001 -1.238690e-002 -1.494877e-001
         vertex 1.250000e-001 4.244120e-003 -9.990989e-002
      endloop
   endfacet
   facet normal 1.000000e+000 1.176432e-016 0.000000e+000
      outer loop
         vertex 1.250000e-001 4.244120e-003 -9.990989e-002
         vertex 1.250000e-001 -1.238690e-002 -1.494877e-001
         vertex 1.250000e-001 1.238690e-002 -1.494877e-001
      endloop
   endfacet
   facet normal 1.000000e+000 1.176432e-016 0.000000e+000
      outer loop
         vertex 1.250000e-001 4.244120e-003 -9.990989e-002
         vertex 1.250000e-001 1.238690e-002 -1.494877e-001
         vertex 1.250000e-001 2.106793e-002 -9.775552e-002
      endloop
   endfacet
   facet normal 1.000000e+000 1.176432e-016 0.000000e+000
      outer loop
         vertex 1.250000e-001 2.106793e-002 -9.775552e-002
         vertex 1.250000e-001 1.238690e-002 -1.494877e-001
         vertex 1.250000e-001 3.682283e-002 -1.454100e-001
      endloop
   endfacet
   facet normal 1.000000e+000 1.176432e-016 0.000000e+000
      outer loop
         vertex 1.250000e-001 2.106793e-002 -9.775552e-002
         vertex 1.250000e-001 3.682283e-002 -1.454100e-001
         vertex 1.250000e-001 3.728565e-002 -9.278890e-002
      endloop
   endfacet
   facet normal 1.000000e+000 1.176432e-016 0.000000e+000
      outer loop
         vertex 1.250000e-001 3.728565e-002 -9.278890e-002
         vertex 1.250000e-001 3.682283e-002 -1.454100e-001
         vertex 1.250000e-001 6.025432e-002 -1.373660e-001
      endloop
   endfacet
   facet normal 1.000000e+000 1.176432e-016 0.000000e+000
      outer loop
         vertex 1.250000e-001 3.728565e-002 -9.278890e-002
         vertex 1.250000e-001 6.025432e-002 -1.373660e-001
         vertex 1.250000e-001 5.243073e-002 -8.515292e-002
      endloop
   endfacet
   facet normal 1.000000e+000 1.176432e-016 0.000000e+000
      outer loop
         vertex 1.250000e-001 5.243073e-002 -8.515292e-002
         vertex 1.250000e-001 6.025432e-002 -1.373660e-001
         vertex 1.250000e-001 8.204222e-002 -1.255750e-001
      endloop
   endfacet
   facet normal 1.000000e+000 1.176432e-016 0.000000e+000
      outer loop
         vertex 1.250000e-001 5.243073e-002 -8.515292e-002
         vertex 1.250000e-001 8.204222e-002 -1.255750e-001
         vertex 1.250000e-001 6.606747e-002 -7.506723e-002
      endloop
   endfacet
   facet normal 1.000000e+000 1.176432e-016 0.000000e+000
      outer loop
         vertex 1.250000e-001 6.606747e-002 -7.506723e-002
         vertex 1.250000e-001 8.204222e-002 -1.255750e-001
         vertex 1.250000e-001 1.015922e-001 -1.103586e-001
      endloop
   endfacet
   facet normal 1.000000e+000 1.176432e-016 0.000000e+000
      outer loop
         vertex 1.250000e-001 6.606747e-002 -7.506723e-002
         vertex 1.250000e-001 1.015922e-001 -1.103586e-001
         vertex 1.250000e-001 7.780357e-002 -6.282200e-002
      endloop
   endfacet
   facet normal 1.000000e+000 1.176432e-016 0.000000e+000
      outer loop
         vertex 1.250000e-001 7.780357e-002 -6.282200e-002
         vertex 1.250000e-001 1.015922e-001 -1.103586e-001
         vertex 1.250000e-001 1.183711e-001 -9.213191e-002
      endloop
   endfacet
   facet normal 1.000000e+000 1.176432e-016 0.000000e+000
      outer loop
         vertex 1.250000e-001 7.780357e-002 -6.282200e-002
         vertex 1.250000e-001 1.183711e-001 -9.213191e-002
         vertex 1.250000e-001 8.730141e-002 -4.876950e-002
      endloop
   endfacet
   facet normal 1.000000e+000 1.176432e-016 0.000000e+000
      outer loop
         vertex 1.250000e-001 8.730141e-002 -4.876950e-002
         vertex 1.250000e-001 1.183711e-001 -9.213191e-002
         vertex 1.250000e-001 1.319211e-001 -7.139211e-002
      endloop
   endfacet
   facet normal 1.000000e+000 1.176432e-016 0.000000e+000
      outer loop
         vertex 1.250000e-001 8.730141e-002 -4.876950e-002
         vertex 1.250000e-001 1.319211e-001 -7.139211e-002
         vertex 1.250000e-001 9.428775e-002 -3.331398e-002
      endloop
   endfacet
   facet normal 1.000000e+000 1.176432e-016 0.000000e+000
      outer loop
         vertex 1.250000e-001 9.428775e-002 -3.331398e-002
         vertex 1.250000e-001 1.319211e-001 -7.139211e-002
         vertex 1.250000e-001 1.418726e-001 -4.870492e-002
      endloop
   endfacet
   facet normal 1.000000e+000 1.176432e-016 0.000000e+000
      outer loop
         vertex 1.250000e-001 9.428775e-002 -3.331398e-002
         vertex 1.250000e-001 1.418726e-001 -4.870492e-002
         vertex 1.250000e-001 9.856159e-002 -1.690008e-002
      endloop
   endfacet
   facet normal 1.000000e+000 1.176432e-016 0.000000e+000
      outer loop
         vertex 1.250000e-001 9.856159e-002 -1.690008e-002
         vertex 1.250000e-001 1.418726e-001 -4.870492e-002
         vertex 1.250000e-001 1.479542e-001 -2.468919e-002
      endloop
   endfacet
   facet normal 1.000000e+000 1.176432e-016 0.000000e+000
      outer loop
         vertex 1.250000e-001 9.856159e-002 -1.690008e-002
         vertex 1.250000e-001 1.479542e-001 -2.468919e-002
         vertex 1.250000e-001 1.000000e-001 0.000000e+000
      endloop
   endfacet
   facet normal 1.000000e+000 1.176432e-016 0.000000e+000
      outer loop
         vertex 1.250000e-001 1.000000e-001 0.000000e+000
         vertex 1.250000e-001 1.479542e-001 -2.468919e-002
         vertex 1.250000e-001 1.500000e-001 -3.673940e-017
      endloop
   endfacet
   facet normal 1.000000e+000 1.176432e-016 0.000000e+000
      outer loop
         vertex 1.250000e-001 1.000000e-001 0.000000e+000
         vertex 1.250000e-001 1.500000e-001 -3.673940e-017
         vertex 1.250000e-001 9.856159e-002 1.690008e-002
      endloop
   endfacet
   facet normal 1.000000e+000 1.176432e-016 0.000000e+000
      outer loop
         vertex 1.250000e-001 9.856159e-002 1.690008e-002
         vertex 1.250000e-001 1.500000e-001 -3.673940e-017
         vertex 1.250000e-001 1.479542e-001 2.468919e-002
      endloop
   endfacet
   facet normal 1.000000e+000 1.176432e-016 0.000000e+000
      outer loop
         vertex 1.250000e-001 9.856159e-002 1.690008e-002
         vertex 1.250000e-001 1.479542e-001 2.468919e-002
         vertex 1.250000e-001 9.428775e-002 3.331398e-002
      endloop
   endfacet
   facet normal 1.000000e+000 1.176432e-016 0.000000e+000
      outer loop
         vertex 1.250000e-001 9.428775e-002 3.331398e-002
         vertex 1.250000e-001 1.479542e-001 2.468919e-002
         vertex 1.250000e-001 1.418726e-001 4.870492e-002
      endloop
   endfacet
   facet normal 1.000000e+000 1.176432e-016 0.000000e+000
      outer loop
         vertex 1.250000e-001 9.428775e-002 3.331398e-002
         vertex 1.250000e-001 1.418726e-001 4.870492e-002
         vertex 1.250000e-001 8.730141e-002 4.876950e-002
      endloop
   endfacet
   facet normal 1.000000e+000 1.176432e-016 0.000000e+000
      outer loop
         vertex 1.250000e-001 8.730141e-002 4.876950e-002
         vertex 1.250000e-001 1.418726e-001 4.870492e-002
         vertex 1.250000e-001 1.319211e-001 7.139211e-002
      endloop
   endfacet
   facet normal 1.000000e+000 1.176432e-016 0.000000e+000
      outer loop
         vertex 1.250000e-001 8.730141e-002 4.876950e-002
         vertex 1.250000e-001 1.319211e-001 7.139211e-002
         vertex 1.250000e-001 7.780357e-002 6.282200e-002
      endloop
   endfacet
   facet normal 1.000000e+000 1.176432e-016 0.000000e+000
      outer loop
         vertex 1.250000e-001 7.780357e-002 6.282200e-002
         vertex 1.250000e-001 1.319211e-001 7.139211e-002
         vertex 1.250000e-001 1.183711e-001 9.213191e-002
      endloop
   endfacet
   facet normal 1.000000e+000 1.176432e-016 0.000000e+000
      outer loop
         vertex 1.250000e-001 7.780357e-002 6.282200e-002
         vertex 1.250000e-001 1.183711e-001 9.213191e-002
         vertex 1.250000e-001 6.606747e-002 7.506723e-002
      endloop
   endfacet
   facet normal 1.000000e+000 1.176432e-016 0.000000e+000
      outer loop
         vertex 1.250000e-001 6.606747e-002 7.506723e-002
         vertex 1.250000e-001 1.183711e-001 9.213191e-002
         vertex 1.250000e-001 1.015922e-001 1.103586e-001
      endloop
   endfacet
   facet normal 1.000000e+000 1.176432e-016 0.000000e+000
      outer loop
         vertex 1.250000e-001 6.606747e-002 7.506723e-002
         vertex 1.250000e-001 1.015922e-001 1.103586e-001
         vertex 1.250000e-001 5.243073e-002 8.515292e-002
      endloop
   endfacet
   facet normal 1.000000e+000 1.176432e-016 0.000000e+000
      outer loop
         vertex 1.250000e-001 5.243073e-002 8.515292e-002
         vertex 1.250000e-001 1.015922e-001 1.103586e-001
         vertex 1.250000e-001 8.204222e-002 1.255750e-001
      endloop
   endfacet
   facet normal 1.000000e+000 1.176432e-016 0.000000e+000
      outer loop
         vertex 1.250000e-001 5.243073e-002 8.515292e-002
         vertex 1.250000e-001 8.204222e-002 1.255750e-001
         vertex 1.250000e-001 3.728565e-002 9.278890e-002
      endloop
   endfacet
   facet normal 1.000000e+000 1.176432e-016 0.000000e+000
      outer loop
         vertex 1.250000e-001 3.728565e-002 9.278890e-002
         vertex 1.250000e-001 8.204222e-002 1.255750e-001
         vertex 1.250000e-001 6.025432e-002 1.373660e-001
      endloop
   endfacet
   facet normal 1.000000e+000 1.176432e-016 0.000000e+000
      outer loop
         vertex 1.250000e-001 3.728565e-002 9.278890e-002
         vertex 1.250000e-001 6.025432e-002 1.373660e-001
         vertex 1.250000e-001 2.106793e-002 9.775552e-002
      endloop
   endfacet
   facet normal 1.000000e+000 1.176432e-016 0.000000e+000
      outer loop
         vertex 1.250000e-001 2.106793e-002 9.775552e-002
         vertex 1.250000e-001 6.025432e-002 1.373660e-001
         vertex 1.250000e-001 3.682283e-002 1.454100e-001
      endloop
   endfacet
   facet normal 1.000000e+000 1.176432e-016 0.000000e+000
      outer loop
         vertex 1.250000e-001 2.106793e-002 9.775552e-002
         vertex 1.250000e-001 3.682283e-002 1.454100e-001
         vertex 1.250000e-001 4.244120e-003 9.990989e-002
      endloop
   endfacet
   facet normal 1.000000e+000 1.176432e-016 0.000000e+000
      outer loop
         vertex 1.250000e-001 4.244120e-003 9.990989e-002
         vertex 1.250000e-001 3.682283e-002 1.454100e-001
         vertex 1.250000e-001 1.238690e-002 1.494877e-001
      endloop
   endfacet
   facet normal 1.000000e+000 1.176432e-016 0.000000e+000
      outer loop
         vertex 1.250000e-001 4.244120e-003 9.990989e-002
         vertex 1.250000e-001 1.238690e-002 1.494877e-001
         vertex 1.250000e-001 -1.270178e-002 9.919004e-002
      endloop
   endfacet
   facet normal 1.000000e+000 1.176432e-016 0.000000e+000
      outer loop
         vertex 1.250000e-001 -1.270178e-002 9.919004e-002
         vertex 1.250000e-001 1.238690e-002 1.494877e-001
         vertex 1.250000e-001 -1.238690e-002 1.494877e-001
      endloop
   endfacet
   facet normal 1.000000e+000 1.176432e-016 0.000000e+000
      outer loop
         vertex 1.250000e-001 -1.270178e-002 9.919004e-002
         vertex 1.250000e-001 -1.238690e-002 1.494877e-001
         vertex 1.250000e-001 -2.928228e-002 9.561667e-002
      endloop
   endfacet
   facet normal 1.000000e+000 1.176432e-016 0.000000e+000
      outer loop
         vertex 1.250000e-001 -2.928228e-002 9.561667e-002
         vertex 1.250000e-001 -1.238690e-002 1.494877e-001
         vertex 1.250000e-001 -3.682283e-002 1.454100e-001
      endloop
   endfacet
   facet normal 1.000000e+000 1.176432e-016 0.000000e+000
      outer loop
         vertex 1.250000e-001 -2.928228e-002 9.561667e-002
         vertex 1.250000e-001 -3.682283e-002 1.454100e-001
         vertex 1.250000e-001 -4.502038e-002 8.929259e-002
      endloop
   endfacet
   facet normal 1.000000e+000 1.176432e-016 0.000000e+000
      outer loop
         vertex 1.250000e-001 -4.502038e-002 8.929259e-002
         vertex 1.250000e-001 -3.682283e-002 1.454100e-001
         vertex 1.250000e-001 -6.025432e-002 1.373660e-001
      endloop
   endfacet
   facet normal 1.000000e+000 1.176432e-016 0.000000e+000
      outer loop
         vertex 1.250000e-001 -4.502038e-002 8.929259e-002
         vertex 1.250000e-001 -6.025432e-002 1.373660e-001
         vertex 1.250000e-001 -5.946332e-002 8.039971e-002
      endloop
   endfacet
   facet normal 1.000000e+000 1.176432e-016 0.000000e+000
      outer loop
         vertex 1.250000e-001 -5.946332e-002 8.039971e-002
         vertex 1.250000e-001 -6.025432e-002 1.373660e-001
         vertex 1.250000e-001 -8.204222e-002 1.255750e-001
      endloop
   endfacet
   facet normal 1.000000e+000 1.176432e-016 0.000000e+000
      outer loop
         vertex 1.250000e-001 -5.946332e-002 8.039971e-002
         vertex 1.250000e-001 -8.204222e-002 1.255750e-001
         vertex 1.250000e-001 -7.219561e-002 6.919388e-002
      endloop
   endfacet
   facet normal 1.000000e+000 1.176432e-016 0.000000e+000
      outer loop
         vertex 1.250000e-001 -7.219561e-002 6.919388e-002
         vertex 1.250000e-001 -8.204222e-002 1.255750e-001
         vertex 1.250000e-001 -1.015922e-001 1.103586e-001
      endloop
   endfacet
   facet normal 1.000000e+000 1.176432e-016 0.000000e+000
      outer loop
         vertex 1.250000e-001 -7.219561e-002 6.919388e-002
         vertex 1.250000e-001 -1.015922e-001 1.103586e-001
         vertex 1.250000e-001 -8.285096e-002 5.599748e-002
      endloop
   endfacet
   facet normal 1.000000e+000 1.176432e-016 0.000000e+000
      outer loop
         vertex 1.250000e-001 -8.285096e-002 5.599748e-002
         vertex 1.250000e-001 -1.015922e-001 1.103586e-001
         vertex 1.250000e-001 -1.183711e-001 9.213191e-002
      endloop
   endfacet
   facet normal 1.000000e+000 1.176432e-016 0.000000e+000
      outer loop
         vertex 1.250000e-001 -8.285096e-002 5.599748e-002
         vertex 1.250000e-001 -1.183711e-001 9.213191e-002
         vertex 1.250000e-001 -9.112285e-002 4.119013e-002
      endloop
   endfacet
   facet normal 1.000000e+000 1.176432e-016 0.000000e+000
      outer loop
         vertex 1.250000e-001 -9.112285e-002 4.119013e-002
         vertex 1.250000e-001 -1.183711e-001 9.213191e-002
         vertex 1.250000e-001 -1.319211e-001 7.139211e-002
      endloop
   endfacet
   facet normal 1.000000e+000 1.176432e-016 0.000000e+000
      outer loop
         vertex 1.250000e-001 -9.112285e-002 4.119013e-002
         vertex 1.250000e-001 -1.319211e-001 7.139211e-002
         vertex 1.250000e-001 -9.677330e-002 2.519781e-002
      endloop
   endfacet
   facet normal 1.000000e+000 1.176432e-016 0.000000e+000
      outer loop
         vertex 1.250000e-001 -9.677330e-002 2.519781e-002
         vertex 1.250000e-001 -1.319211e-001 7.139211e-002
         vertex 1.250000e-001 -1.418726e-001 4.870492e-002
      endloop
   endfacet
   facet normal 1.000000e+000 1.176432e-016 0.000000e+000
      outer loop
         vertex 1.250000e-001 -9.677330e-002 2.519781e-002
         vertex 1.250000e-001 -1.418726e-001 4.870492e-002
         vertex 1.250000e-001 -9.963974e-002 8.480593e-003
      endloop
   endfacet
   facet normal -1.169285e-016 9.939246e-001 1.100638e-001
      outer loop
         vertex 1.250000e-001 1.500000e-001 0.000000e+000
         vertex -1.740581e-017 1.479542e-001 2.468919e-002
         vertex 1.250000e-001 1.479542e-001 2.468919e-002
      endloop
   endfacet
   facet normal -1.147973e-016 9.758086e-001 2.186265e-001
      outer loop
         vertex 1.250000e-001 1.479542e-001 2.468919e-002
         vertex -1.740581e-017 1.479542e-001 2.468919e-002
         vertex -1.669035e-017 1.418726e-001 4.870492e-002
      endloop
   endfacet
   facet normal -1.132025e-016 9.622528e-001 2.721573e-001
      outer loop
         vertex 1.250000e-001 1.479542e-001 2.468919e-002
         vertex -1.669035e-017 1.418726e-001 4.870492e-002
         vertex 1.250000e-001 1.418726e-001 4.870492e-002
      endloop
   endfacet
   facet normal -1.089982e-016 9.265151e-001 3.762575e-001
      outer loop
         vertex 1.250000e-001 1.418726e-001 4.870492e-002
         vertex -1.669035e-017 1.418726e-001 4.870492e-002
         vertex -1.551962e-017 1.319211e-001 7.139211e-002
      endloop
   endfacet
   facet normal -1.063887e-016 9.043333e-001 4.268270e-001
      outer loop
         vertex 1.250000e-001 1.418726e-001 4.870492e-002
         vertex -1.551962e-017 1.319211e-001 7.139211e-002
         vertex 1.250000e-001 1.319211e-001 7.139211e-002
      endloop
   endfacet
   facet normal -1.002260e-016 8.519487e-001 5.236253e-001
      outer loop
         vertex 1.250000e-001 1.319211e-001 7.139211e-002
         vertex -1.551962e-017 1.319211e-001 7.139211e-002
         vertex -1.392556e-017 1.183711e-001 9.213191e-002
      endloop
   endfacet
   facet normal -9.667285e-017 8.217459e-001 5.698540e-001
      outer loop
         vertex 1.250000e-001 1.319211e-001 7.139211e-002
         vertex -1.392556e-017 1.183711e-001 9.213191e-002
         vertex 1.250000e-001 1.183711e-001 9.213191e-002
      endloop
   endfacet
   facet normal -8.871987e-017 7.541434e-001 6.567098e-001
      outer loop
         vertex 1.250000e-001 1.183711e-001 9.213191e-002
         vertex -1.392556e-017 1.183711e-001 9.213191e-002
         vertex -1.195164e-017 1.015922e-001 1.103586e-001
      endloop
   endfacet
   facet normal -8.432003e-017 7.167435e-001 6.973369e-001
      outer loop
         vertex 1.250000e-001 1.183711e-001 9.213191e-002
         vertex -1.195164e-017 1.015922e-001 1.103586e-001
         vertex 1.250000e-001 1.015922e-001 1.103586e-001
      endloop
   endfacet
   facet normal -7.479368e-017 6.357669e-001 7.718811e-001
      outer loop
         vertex 1.250000e-001 1.015922e-001 1.103586e-001
         vertex -1.195164e-017 1.015922e-001 1.103586e-001
         vertex -9.651713e-018 8.204222e-002 1.255750e-001
      endloop
   endfacet
   facet normal -6.966717e-017 5.921901e-001 8.057982e-001
      outer loop
         vertex 1.250000e-001 1.015922e-001 1.103586e-001
         vertex -9.651713e-018 8.204222e-002 1.255750e-001
         vertex 1.250000e-001 8.204222e-002 1.255750e-001
      endloop
   endfacet
   facet normal -5.882732e-017 5.000484e-001 8.659974e-001
      outer loop
         vertex 1.250000e-001 8.204222e-002 1.255750e-001
         vertex -9.651713e-018 8.204222e-002 1.255750e-001
         vertex -7.088513e-018 6.025432e-002 1.373660e-001
      endloop
   endfacet
   facet normal -5.311398e-017 4.514834e-001 8.922795e-001
      outer loop
         vertex 1.250000e-001 8.204222e-002 1.255750e-001
         vertex -7.088513e-018 6.025432e-002 1.373660e-001
         vertex 1.250000e-001 6.025432e-002 1.373660e-001
      endloop
   endfacet
   facet normal -4.125630e-017 3.506899e-001 9.364916e-001
      outer loop
         vertex 1.250000e-001 6.025432e-002 1.373660e-001
         vertex -7.088513e-018 6.025432e-002 1.373660e-001
         vertex -4.331956e-018 3.682283e-002 1.454100e-001
      endloop
   endfacet
   facet normal -3.511197e-017 2.984614e-001 9.544217e-001
      outer loop
         vertex 1.250000e-001 6.025432e-002 1.373660e-001
         vertex -4.331956e-018 3.682283e-002 1.454100e-001
         vertex 1.250000e-001 3.682283e-002 1.454100e-001
      endloop
   endfacet
   facet normal -2.255992e-017 1.917655e-001 9.814408e-001
      outer loop
         vertex 1.250000e-001 3.682283e-002 1.454100e-001
         vertex -4.331956e-018 3.682283e-002 1.454100e-001
         vertex -1.457235e-018 1.238690e-002 1.494877e-001
      endloop
   endfacet
   facet normal -1.615220e-017 1.372982e-001 9.905298e-001
      outer loop
         vertex 1.250000e-001 3.682283e-002 1.454100e-001
         vertex -1.457235e-018 1.238690e-002 1.494877e-001
         vertex 1.250000e-001 1.238690e-002 1.494877e-001
      endloop
   endfacet
   facet normal -3.248160e-018 2.761026e-002 9.996188e-001
      outer loop
         vertex 1.250000e-001 1.238690e-002 1.494877e-001
         vertex -1.457235e-018 1.238690e-002 1.494877e-001
         vertex 1.457235e-018 -1.238690e-002 1.494877e-001
      endloop
   endfacet
   facet normal 3.248160e-018 -2.761026e-002 9.996188e-001
      outer loop
         vertex 1.250000e-001 1.238690e-002 1.494877e-001
         vertex 1.457235e-018 -1.238690e-002 1.494877e-001
         vertex 1.250000e-001 -1.238690e-002 1.494877e-001
      endloop
   endfacet
   facet normal 1.615220e-017 -1.372982e-001 9.905298e-001
      outer loop
         vertex 1.250000e-001 -1.238690e-002 1.494877e-001
         vertex 1.457235e-018 -1.238690e-002 1.494877e-001
         vertex 4.331956e-018 -3.682283e-002 1.454100e-001
      endloop
   endfacet
   facet normal 2.255992e-017 -1.917655e-001 9.814408e-001
      outer loop
         vertex 1.250000e-001 -1.238690e-002 1.494877e-001
         vertex 4.331956e-018 -3.682283e-002 1.454100e-001
         vertex 1.250000e-001 -3.682283e-002 1.454100e-001
      endloop
   endfacet
   facet normal 3.511196e-017 -2.984614e-001 9.544217e-001
      outer loop
         vertex 1.250000e-001 -3.682283e-002 1.454100e-001
         vertex 4.331956e-018 -3.682283e-002 1.454100e-001
         vertex 7.088513e-018 -6.025432e-002 1.373660e-001
      endloop
   endfacet
   facet normal 4.125630e-017 -3.506899e-001 9.364916e-001
      outer loop
         vertex 1.250000e-001 -3.682283e-002 1.454100e-001
         vertex 7.088513e-018 -6.025432e-002 1.373660e-001
         vertex 1.250000e-001 -6.025432e-002 1.373660e-001
      endloop
   endfacet
   facet normal 5.311398e-017 -4.514834e-001 8.922795e-001
      outer loop
         vertex 1.250000e-001 -6.025432e-002 1.373660e-001
         vertex 7.088513e-018 -6.025432e-002 1.373660e-001
         vertex 9.651713e-018 -8.204222e-002 1.255750e-001
      endloop
   endfacet
   facet normal 5.882732e-017 -5.000484e-001 8.659974e-001
      outer loop
         vertex 1.250000e-001 -6.025432e-002 1.373660e-001
         vertex 9.651713e-018 -8.204222e-002 1.255750e-001
         vertex 1.250000e-001 -8.204222e-002 1.255750e-001
      endloop
   endfacet
   facet normal 6.966717e-017 -5.921901e-001 8.057982e-001
      outer loop
         vertex 1.250000e-001 -8.204222e-002 1.255750e-001
         vertex 9.651713e-018 -8.204222e-002 1.255750e-001
         vertex 1.195164e-017 -1.015922e-001 1.103586e-001
      endloop
   endfacet
   facet normal 7.479368e-017 -6.357669e-001 7.718811e-001
      outer loop
         vertex 1.250000e-001 -8.204222e-002 1.255750e-001
         vertex 1.195164e-017 -1.015922e-001 1.103586e-001
         vertex 1.250000e-001 -1.015922e-001 1.103586e-001
      endloop
   endfacet
   facet normal 8.432003e-017 -7.167435e-001 6.973369e-001
      outer loop
         vertex 1.250000e-001 -1.015922e-001 1.103586e-001
         vertex 1.195164e-017 -1.015922e-001 1.103586e-001
         vertex 1.392556e-017 -1.183711e-001 9.213191e-002
      endloop
   endfacet
   facet normal 8.871987e-017 -7.541434e-001 6.567098e-001
      outer loop
         vertex 1.250000e-001 -1.015922e-001 1.103586e-001
         vertex 1.392556e-017 -1.183711e-001 9.213191e-002
         vertex 1.250000e-001 -1.183711e-001 9.213191e-002
      endloop
   endfacet
   facet normal 9.667285e-017 -8.217459e-001 5.698540e-001
      outer loop
         vertex 1.250000e-001 -1.183711e-001 9.213191e-002
         vertex 1.392556e-017 -1.183711e-001 9.213191e-002
         vertex 1.551962e-017 -1.319211e-001 7.139211e-002
      endloop
   endfacet
   facet normal 1.002260e-016 -8.519487e-001 5.236253e-001
      outer loop
         vertex 1.250000e-001 -1.183711e-001 9.213191e-002
         vertex 1.551962e-017 -1.319211e-001 7.139211e-002
         vertex 1.250000e-001 -1.319211e-001 7.139211e-002
      endloop
   endfacet
   facet normal 1.063887e-016 -9.043333e-001 4.268270e-001
      outer loop
         vertex 1.250000e-001 -1.319211e-001 7.139211e-002
         vertex 1.551962e-017 -1.319211e-001 7.139211e-002
         vertex 1.669035e-017 -1.418726e-001 4.870492e-002
      endloop
   endfacet
   facet normal 1.089982e-016 -9.265151e-001 3.762575e-001
      outer loop
         vertex 1.250000e-001 -1.319211e-001 7.139211e-002
         vertex 1.669035e-017 -1.418726e-001 4.870492e-002
         vertex 1.250000e-001 -1.418726e-001 4.870492e-002
      endloop
   endfacet
   facet normal 1.132025e-016 -9.622528e-001 2.721573e-001
      outer loop
         vertex 1.250000e-001 -1.418726e-001 4.870492e-002
         vertex 1.669035e-017 -1.418726e-001 4.870492e-002
         vertex 1.740581e-017 -1.479542e-001 2.468919e-002
      endloop
   endfacet
   facet normal 1.147973e-016 -9.758086e-001 2.186265e-001
      outer loop
         vertex 1.250000e-001 -1.418726e-001 4.870492e-002
         vertex 1.740581e-017 -1.479542e-001 2.468919e-002
         vertex 1.250000e-001 -1.479542e-001 2.468919e-002
      endloop
   endfacet
   facet normal 1.169285e-016 -9.939246e-001 1.100638e-001
      outer loop
         vertex 1.250000e-001 -1.479542e-001 2.468919e-002
         vertex 1.740581e-017 -1.479542e-001 2.468919e-002
         vertex 1.764649e-017 -1.500000e-001 1.836970e-017
      endloop
   endfacet
   facet normal 1.174650e-016 -9.984846e-001 5.503191e-002
      outer loop
         vertex 1.250000e-001 -1.479542e-001 2.468919e-002
         vertex 1.764649e-017 -1.500000e-001 1.836970e-017
         vertex 1.250000e-001 -1.500000e-001 1.836970e-017
      endloop
   endfacet
   facet normal 1.174650e-016 -9.984846e-001 -5.503191e-002
      outer loop
         vertex 1.250000e-001 -1.500000e-001 1.836970e-017
         vertex 1.764649e-017 -1.500000e-001 1.836970e-017
         vertex 1.740581e-017 -1.479542e-001 -2.468919e-002
      endloop
   endfacet
   facet normal 1.169285e-016 -9.939246e-001 -1.100638e-001
      outer loop
         vertex 1.250000e-001 -1.500000e-001 1.836970e-017
         vertex 1.740581e-017 -1.479542e-001 -2.468919e-002
         vertex 1.250000e-001 -1.479542e-001 -2.468919e-002
      endloop
   endfacet
   facet normal 1.147973e-016 -9.758086e-001 -2.186265e-001
      outer loop
         vertex 1.250000e-001 -1.479542e-001 -2.468919e-002
         vertex 1.740581e-017 -1.479542e-001 -2.468919e-002
         vertex 1.669035e-017 -1.418726e-001 -4.870492e-002
      endloop
   endfacet
   facet normal 1.132025e-016 -9.622528e-001 -2.721573e-001
      outer loop
         vertex 1.250000e-001 -1.479542e-001 -2.468919e-002
         vertex 1.669035e-017 -1.418726e-001 -4.870492e-002
         vertex 1.250000e-001 -1.418726e-001 -4.870492e-002
      endloop
   endfacet
   facet normal 1.089982e-016 -9.265151e-001 -3.762575e-001
      outer loop
         vertex 1.250000e-001 -1.418726e-001 -4.870492e-002
         vertex 1.669035e-017 -1.418726e-001 -4.870492e-002
         vertex 1.551962e-017 -1.319211e-001 -7.139211e-002
      endloop
   endfacet
   facet normal 1.063887e-016 -9.043333e-001 -4.268270e-001
      outer loop
         vertex 1.250000e-001 -1.418726e-001 -4.870492e-002
         vertex 1.551962e-017 -1.319211e-001 -7.139211e-002
         vertex 1.250000e-001 -1.319211e-001 -7.139211e-002
      endloop
   endfacet
   facet normal 1.002260e-016 -8.519487e-001 -5.236253e-001
      outer loop
         vertex 1.250000e-001 -1.319211e-001 -7.139211e-002
         vertex 1.551962e-017 -1.319211e-001 -7.139211e-002
         vertex 1.392556e-017 -1.183711e-001 -9.213191e-002
      endloop
   endfacet
   facet normal 9.667285e-017 -8.217459e-001 -5.698540e-001
      outer loop
         vertex 1.250000e-001 -1.319211e-001 -7.139211e-002
         vertex 1.392556e-017 -1.183711e-001 -9.213191e-002
         vertex 1.250000e-001 -1.183711e-001 -9.213191e-002
      endloop
   endfacet
   facet normal 8.871987e-017 -7.541434e-001 -6.567098e-001
      outer loop
         vertex 1.250000e-001 -1.183711e-001 -9.213191e-002
         vertex 1.392556e-017 -1.183711e-001 -9.213191e-002
         vertex 1.195164e-017 -1.015922e-001 -1.103586e-001
      endloop
   endfacet
   facet normal 8.432003e-017 -7.167435e-001 -6.973369e-001
      outer loop
         vertex 1.250000e-001 -1.183711e-001 -9.213191e-002
         vertex 1.195164e-017 -1.015922e-001 -1.103586e-001
         vertex 1.250000e-001 -1.015922e-001 -1.103586e-001
      endloop
   endfacet
   facet normal 7.479368e-017 -6.357669e-001 -7.718811e-001
      outer loop
         vertex 1.250000e-001 -1.015922e-001 -1.103586e-001
         vertex 1.195164e-017 -1.015922e-001 -1.103586e-001
         vertex 9.651713e-018 -8.204222e-002 -1.255750e-001
      endloop
   endfacet
   facet normal 6.966717e-017 -5.921901e-001 -8.057982e-001
      outer loop
         vertex 1.250000e-001 -1.015922e-001 -1.103586e-001
         vertex 9.651713e-018 -8.204222e-002 -1.255750e-001
         vertex 1.250000e-001 -8.204222e-002 -1.255750e-001
      endloop
   endfacet
   facet normal 5.882732e-017 -5.000484e-001 -8.659974e-001
      outer loop
         vertex 1.250000e-001 -8.204222e-002 -1.255750e-001
         vertex 9.651713e-018 -8.204222e-002 -1.255750e-001
         vertex 7.088513e-018 -6.025432e-002 -1.373660e-001
      endloop
   endfacet
   facet normal 5.311398e-017 -4.514834e-001 -8.922795e-001
      outer loop
         vertex 1.250000e-001 -8.204222e-002 -1.255750e-001
         vertex 7.088513e-018 -6.025432e-002 -1.373660e-001
         vertex 1.250000e-001 -6.025432e-002 -1.373660e-001
      endloop
   endfacet
   facet normal 4.125630e-017 -3.506899e-001 -9.364916e-001
      outer loop
         vertex 1.250000e-001 -6.025432e-002 -1.373660e-001
         vertex 7.088513e-018 -6.025432e-002 -1.373660e-001
         vertex 4.331956e-018 -3.682283e-002 -1.454100e-001
      endloop
   endfacet
   facet normal 3.511197e-017 -2.984614e-001 -9.544217e-001
      outer loop
         vertex 1.250000e-001 -6.025432e-002 -1.373660e-001
         vertex 4.331956e-018 -3.682283e-002 -1.454100e-001
         vertex 1.250000e-001 -3.682283e-002 -1.454100e-001
      endloop
   endfacet
   facet normal 2.255992e-017 -1.917655e-001 -9.814408e-001
      outer loop
         vertex 1.250000e-001 -3.682283e-002 -1.454100e-001
         vertex 4.331956e-018 -3.682283e-002 -1.454100e-001
         vertex 1.457235e-018 -1.238690e-002 -1.494877e-001
      endloop
   endfacet
   facet normal 1.615220e-017 -1.372982e-001 -9.905298e-001
      outer loop
         vertex 1.250000e-001 -3.682283e-002 -1.454100e-001
         vertex 1.457235e-018 -1.238690e-002 -1.494877e-001
         vertex 1.250000e-001 -1.238690e-002 -1.494877e-001
      endloop
   endfacet
   facet normal 3.248160e-018 -2.761026e-002 -9.996188e-001
      outer loop
         vertex 1.250000e-001 -1.238690e-002 -1.494877e-001
         vertex 1.457235e-018 -1.238690e-002 -1.494877e-001
         vertex -1.457235e-018 1.238690e-002 -1.494877e-001
      endloop
   endfacet
   facet normal -3.248160e-018 2.761026e-002 -9.996188e-001
      outer loop
         vertex 1.250000e-001 -1.238690e-002 -1.494877e-001
         vertex -1.457235e-018 1.238690e-002 -1.494877e-001
         vertex 1.250000e-001 1.238690e-002 -1.494877e-001
      endloop
   endfacet
   facet normal -1.615220e-017 1.372982e-001 -9.905298e-001
      outer loop
         vertex 1.250000e-001 1.238690e-002 -1.494877e-001
         vertex -1.457235e-018 1.238690e-002 -1.494877e-001
         vertex -4.331956e-018 3.682283e-002 -1.454100e-001
      endloop
   endfacet
   facet normal -2.255992e-017 1.917655e-001 -9.814408e-001
      outer loop
         vertex 1.250000e-001 1.238690e-002 -1.494877e-001
         vertex -4.331956e-018 3.682283e-002 -1.454100e-001
         vertex 1.250000e-001 3.682283e-002 -1.454100e-001
      endloop
   endfacet
   facet normal -3.511196e-017 2.984614e-001 -9.544217e-001
      outer loop
         vertex 1.250000e-001 3.682283e-002 -1.454100e-001
         vertex -4.331956e-018 3.682283e-002 -1.454100e-001
         vertex -7.088513e-018 6.025432e-002 -1.373660e-001
      endloop
   endfacet
   facet normal -4.125630e-017 3.506899e-001 -9.364916e-001
      outer loop
         vertex 1.250000e-001 3.682283e-002 -1.454100e-001
         vertex -7.088513e-018 6.025432e-002 -1.373660e-001
         vertex 1.250000e-001 6.025432e-002 -1.373660e-001
      endloop
   endfacet
   facet normal -5.311398e-017 4.514834e-001 -8.922795e-001
      outer loop
         vertex 1.250000e-001 6.025432e-002 -1.373660e-001
         vertex -7.088513e-018 6.025432e-002 -1.373660e-001
         vertex -9.651713e-018 8.204222e-002 -1.255750e-001
      endloop
   endfacet
   facet normal -5.882732e-017 5.000484e-001 -8.659974e-001
      outer loop
         vertex 1.250000e-001 6.025432e-002 -1.373660e-001
         vertex -9.651713e-018 8.204222e-002 -1.255750e-001
         vertex 1.250000e-001 8.204222e-002 -1.255750e-001
      endloop
   endfacet
   facet normal -6.966717e-017 5.921901e-001 -8.057982e-001
      outer loop
         vertex 1.250000e-001 8.204222e-002 -1.255750e-001
         vertex -9.651713e-018 8.204222e-002 -1.255750e-001
         vertex -1.195164e-017 1.015922e-001 -1.103586e-001
      endloop
   endfacet
   facet normal -7.479368e-017 6.357669e-001 -7.718811e-001
      outer loop
         vertex 1.250000e-001 8.204222e-002 -1.255750e-001
         vertex -1.195164e-017 1.015922e-001 -1.103586e-001
         vertex 1.250000e-001 1.015922e-001 -1.103586e-001
      endloop
   endfacet
   facet normal -8.432003e-017 7.167435e-001 -6.973369e-001
      outer loop
         vertex 1.250000e-001 1.015922e-001 -1.103586e-001
         vertex -1.195164e-017 1.015922e-001 -1.103586e-001
         vertex -1.392556e-017 1.183711e-001 -9.213191e-002
      endloop
   endfacet
   facet normal -8.871987e-017 7.541434e-001 -6.567098e-001
      outer loop
         vertex 1.250000e-001 1.015922e-001 -1.103586e-001
         vertex -1.392556e-017 1.183711e-001 -9.213191e-002
         vertex 1.250000e-001 1.183711e-001 -9.213191e-002
      endloop
   endfacet
   facet normal -9.667285e-017 8.217459e-001 -5.698540e-001
      outer loop
         vertex 1.250000e-001 1.183711e-001 -9.213191e-002
         vertex -1.392556e-017 1.183711e-001 -9.213191e-002
         vertex -1.551962e-017 1.319211e-001 -7.139211e-002
      endloop
   endfacet
   facet normal -1.002260e-016 8.519487e-001 -5.236253e-001
      outer loop
         vertex 1.250000e-001 1.183711e-001 -9.213191e-002
         vertex -1.551962e-017 1.319211e-001 -7.139211e-002
         vertex 1.250000e-001 1.319211e-001 -7.139211e-002
      endloop
   endfacet
   facet normal -1.063887e-016 9.043333e-001 -4.268270e-001
      outer loop
         vertex 1.250000e-001 1.319211e-001 -7.139211e-002
         vertex -1.551962e-017 1.319211e-001 -7.139211e-002
         vertex -1.669035e-017 1.418726e-001 -4.870492e-002
      endloop
   endfacet
   facet normal -1.089982e-016 9.265151e-001 -3.762575e-001
      outer loop
         vertex 1.250000e-001 1.319211e-001 -7.139211e-002
         vertex -1.669035e-017 1.418726e-001 -4.870492e-002
         vertex 1.250000e-001 1.418726e-001 -4.870492e-002
      endloop
   endfacet
   facet normal -1.132025e-016 9.622528e-001 -2.721573e-001
      outer loop
         vertex 1.250000e-001 1.418726e-001 -4.870492e-002
         vertex -1.669035e-017 1.418726e-001 -4.870492e-002
         vertex -1.740581e-017 1.479542e-001 -2.468919e-002
      endloop
   endfacet
   facet normal -1.147973e-016 9.758086e-001 -2.186265e-001
      outer loop
         vertex 1.250000e-001 1.418726e-001 -4.870492e-002
         vertex -1.740581e-017 1.479542e-001 -2.468919e-002
         vertex 1.250000e-001 1.479542e-001 -2.468919e-002
      endloop
   endfacet
   facet normal -1.169285e-016 9.939246e-001 -1.100638e-001
      outer loop
         vertex 1.250000e-001 1.479542e-001 -2.468919e-002
         vertex -1.740581e-017 1.479542e-001 -2.468919e-002
         vertex -1.764649e-017 1.500000e-001 0.000000e+000
      endloop
   endfacet
   facet normal -1.174650e-016 9.984846e-001 -5.503191e-002
      outer loop
         vertex 1.250000e-001 1.479542e-001 -2.468919e-002
         vertex -1.764649e-017 1.500000e-001 0.000000e+000
         vertex 1.250000e-001 1.500000e-001 0.000000e+000
      endloop
   endfacet
   facet normal -1.174650e-016 9.984846e-001 5.503191e-002
      outer loop
         vertex 1.250000e-001 1.500000e-001 0.000000e+000
         vertex -1.764649e-017 1.500000e-001 0.000000e+000
         vertex -1.740581e-017 1.479542e-001 2.468919e-002
      endloop
   endfacet
   facet normal -1.000000e+000 -1.176432e-016 0.000000e+000
      outer loop
         vertex -8.823243e-018 1.500000e-001 0.000000e+000
         vertex -8.582568e-018 1.479542e-001 -2.468919e-002
         vertex 8.823243e-018 1.037995e-033 0.000000e+000
      endloop
   endfacet
   facet normal -1.000000e+000 -1.176432e-016 0.000000e+000
      outer loop
         vertex -8.823243e-018 1.500000e-001 0.000000e+000
         vertex 8.823243e-018 1.037995e-033 0.000000e+000
         vertex -8.582568e-018 1.479542e-001 2.468919e-002
      endloop
   endfacet
   facet normal -1.000000e+000 -1.176432e-016 0.000000e+000
      outer loop
         vertex -5.102314e-018 1.183711e-001 9.213191e-002
         vertex -6.696378e-018 1.319211e-001 7.139211e-002
         vertex 8.823243e-018 1.037995e-033 0.000000e+000
      endloop
   endfacet
   facet normal -1.000000e+000 -1.176432e-016 0.000000e+000
      outer loop
         vertex 8.823243e-018 1.037995e-033 0.000000e+000
         vertex -6.696378e-018 1.319211e-001 7.139211e-002
         vertex -7.867107e-018 1.418726e-001 4.870492e-002
      endloop
   endfacet
   facet normal -1.000000e+000 -1.176432e-016 0.000000e+000
      outer loop
         vertex 8.823243e-018 1.037995e-033 0.000000e+000
         vertex -7.867107e-018 1.418726e-001 4.870492e-002
         vertex -8.582568e-018 1.479542e-001 2.468919e-002
      endloop
   endfacet
   facet normal -1.000000e+000 -1.176432e-016 0.000000e+000
      outer loop
         vertex 1.734730e-018 6.025432e-002 1.373660e-001
         vertex -8.284700e-019 8.204222e-002 1.255750e-001
         vertex 8.823243e-018 1.037995e-033 0.000000e+000
      endloop
   endfacet
   facet normal -1.000000e+000 -1.176432e-016 0.000000e+000
      outer loop
         vertex 8.823243e-018 1.037995e-033 0.000000e+000
         vertex -8.284700e-019 8.204222e-002 1.255750e-001
         vertex -3.128397e-018 1.015922e-001 1.103586e-001
      endloop
   endfacet
   facet normal -1.000000e+000 -1.176432e-016 0.000000e+000
      outer loop
         vertex 8.823243e-018 1.037995e-033 0.000000e+000
         vertex -3.128397e-018 1.015922e-001 1.103586e-001
         vertex -5.102314e-018 1.183711e-001 9.213191e-002
      endloop
   endfacet
   facet normal -1.000000e+000 -1.176432e-016 0.000000e+000
      outer loop
         vertex 1.028048e-017 -1.238690e-002 1.494877e-001
         vertex 7.366007e-018 1.238690e-002 1.494877e-001
         vertex 8.823243e-018 1.037995e-033 0.000000e+000
      endloop
   endfacet
   facet normal -1.000000e+000 -1.176432e-016 0.000000e+000
      outer loop
         vertex 8.823243e-018 1.037995e-033 0.000000e+000
         vertex 7.366007e-018 1.238690e-002 1.494877e-001
         vertex 4.491286e-018 3.682283e-002 1.454100e-001
      endloop
   endfacet
   facet normal -1.000000e+000 -1.176432e-016 0.000000e+000
      outer loop
         vertex 8.823243e-018 1.037995e-033 0.000000e+000
         vertex 4.491286e-018 3.682283e-002 1.454100e-001
         vertex 1.734730e-018 6.025432e-002 1.373660e-001
      endloop
   endfacet
   facet normal -1.000000e+000 -1.176432e-016 0.000000e+000
      outer loop
         vertex 1.847495e-017 -8.204222e-002 1.255750e-001
         vertex 1.591176e-017 -6.025432e-002 1.373660e-001
         vertex 8.823243e-018 1.037995e-033 0.000000e+000
      endloop
   endfacet
   facet normal -1.000000e+000 -1.176432e-016 0.000000e+000
      outer loop
         vertex 8.823243e-018 1.037995e-033 0.000000e+000
         vertex 1.591176e-017 -6.025432e-002 1.373660e-001
         vertex 1.315520e-017 -3.682283e-002 1.454100e-001
      endloop
   endfacet
   facet normal -1.000000e+000 -1.176432e-016 0.000000e+000
      outer loop
         vertex 8.823243e-018 1.037995e-033 0.000000e+000
         vertex 1.315520e-017 -3.682283e-002 1.454100e-001
         vertex 1.028048e-017 -1.238690e-002 1.494877e-001
      endloop
   endfacet
   facet normal -1.000000e+000 -1.176432e-016 0.000000e+000
      outer loop
         vertex 2.434286e-017 -1.319211e-001 7.139211e-002
         vertex 2.274880e-017 -1.183711e-001 9.213191e-002
         vertex 8.823243e-018 1.037995e-033 0.000000e+000
      endloop
   endfacet
   facet normal -1.000000e+000 -1.176432e-016 0.000000e+000
      outer loop
         vertex 8.823243e-018 1.037995e-033 0.000000e+000
         vertex 2.274880e-017 -1.183711e-001 9.213191e-002
         vertex 2.077488e-017 -1.015922e-001 1.103586e-001
      endloop
   endfacet
   facet normal -1.000000e+000 -1.176432e-016 0.000000e+000
      outer loop
         vertex 8.823243e-018 1.037995e-033 0.000000e+000
         vertex 2.077488e-017 -1.015922e-001 1.103586e-001
         vertex 1.847495e-017 -8.204222e-002 1.255750e-001
      endloop
   endfacet
   facet normal -1.000000e+000 -1.176432e-016 0.000000e+000
      outer loop
         vertex 2.646973e-017 -1.500000e-001 1.836970e-017
         vertex 2.622905e-017 -1.479542e-001 2.468919e-002
         vertex 8.823243e-018 1.037995e-033 0.000000e+000
      endloop
   endfacet
   facet normal -1.000000e+000 -1.176432e-016 0.000000e+000
      outer loop
         vertex 8.823243e-018 1.037995e-033 0.000000e+000
         vertex 2.622905e-017 -1.479542e-001 2.468919e-002
         vertex 2.551359e-017 -1.418726e-001 4.870492e-002
      endloop
   endfacet
   facet normal -1.000000e+000 -1.176432e-016 0.000000e+000
      outer loop
         vertex 8.823243e-018 1.037995e-033 0.000000e+000
         vertex 2.551359e-017 -1.418726e-001 4.870492e-002
         vertex 2.434286e-017 -1.319211e-001 7.139211e-002
      endloop
   endfacet
   facet normal -1.000000e+000 -1.176432e-016 0.000000e+000
      outer loop
         vertex 2.434286e-017 -1.319211e-001 -7.139211e-002
         vertex 2.551359e-017 -1.418726e-001 -4.870492e-002
         vertex 8.823243e-018 1.037995e-033 0.000000e+000
      endloop
   endfacet
   facet normal -1.000000e+000 -1.176432e-016 0.000000e+000
      outer loop
         vertex 8.823243e-018 1.037995e-033 0.000000e+000
         vertex 2.551359e-017 -1.418726e-001 -4.870492e-002
         vertex 2.622905e-017 -1.479542e-001 -2.468919e-002
      endloop
   endfacet
   facet normal -1.000000e+000 -1.176432e-016 0.000000e+000
      outer loop
         vertex 8.823243e-018 1.037995e-033 0.000000e+000
         vertex 2.622905e-017 -1.479542e-001 -2.468919e-002
         vertex 2.646973e-017 -1.500000e-001 1.836970e-017
      endloop
   endfacet
   facet normal -1.000000e+000 -1.176432e-016 0.000000e+000
      outer loop
         vertex 1.847495e-017 -8.204222e-002 -1.255750e-001
         vertex 2.077488e-017 -1.015922e-001 -1.103586e-001
         vertex 8.823243e-018 1.037995e-033 0.000000e+000
      endloop
   endfacet
   facet normal -1.000000e+000 -1.176432e-016 0.000000e+000
      outer loop
         vertex 8.823243e-018 1.037995e-033 0.000000e+000
         vertex 2.077488e-017 -1.015922e-001 -1.103586e-001
         vertex 2.274880e-017 -1.183711e-001 -9.213191e-002
      endloop
   endfacet
   facet normal -1.000000e+000 -1.176432e-016 0.000000e+000
      outer loop
         vertex 8.823243e-018 1.037995e-033 0.000000e+000
         vertex 2.274880e-017 -1.183711e-001 -9.213191e-002
         vertex 2.434286e-017 -1.319211e-001 -7.139211e-002
      endloop
   endfacet
   facet normal -1.000000e+000 -1.176432e-016 0.000000e+000
      outer loop
         vertex 1.028048e-017 -1.238690e-002 -1.494877e-001
         vertex 1.315520e-017 -3.682283e-002 -1.454100e-001
         vertex 8.823243e-018 1.037995e-033 0.000000e+000
      endloop
   endfacet
   facet normal -1.000000e+000 -1.176432e-016 0.000000e+000
      outer loop
         vertex 8.823243e-018 1.037995e-033 0.000000e+000
         vertex 1.315520e-017 -3.682283e-002 -1.454100e-001
         vertex 1.591176e-017 -6.025432e-002 -1.373660e-001
      endloop
   endfacet
   facet normal -1.000000e+000 -1.176432e-016 0.000000e+000
      outer loop
         vertex 8.823243e-018 1.037995e-033 0.000000e+000
         vertex 1.591176e-017 -6.025432e-002 -1.373660e-001
         vertex 1.847495e-017 -8.204222e-002 -1.255750e-001
      endloop
   endfacet
   facet normal -1.000000e+000 -1.176432e-016 0.000000e+000
      outer loop
         vertex 1.734730e-018 6.025432e-002 -1.373660e-001
         vertex 4.491286e-018 3.682283e-002 -1.454100e-001
         vertex 8.823243e-018 1.037995e-033 0.000000e+000
      endloop
   endfacet
   facet normal -1.000000e+000 -1.176432e-016 0.000000e+000
      outer loop
         vertex 8.823243e-018 1.037995e-033 0.000000e+000
         vertex 4.491286e-018 3.682283e-002 -1.454100e-001
         vertex 7.366007e-018 1.238690e-002 -1.494877e-001
      endloop
   endfacet
   facet normal -1.000000e+000 -1.176432e-016 0.000000e+000
      outer loop
         vertex 8.823243e-018 1.037995e-033 0.000000e+000
         vertex 7.366007e-018 1.238690e-002 -1.494877e-001
         vertex 1.028048e-017 -1.238690e-002 -1.494877e-001
      endloop
   endfacet
   facet normal -1.000000e+000 -1.176432e-016 0.000000e+000
      outer loop
         vertex -5.102314e-018 1.183711e-001 -9.213191e-002
         vertex -3.128397e-018 1.015922e-001 -1.103586e-001
         vertex 8.823243e-018 1.037995e-033 0.000000e+000
      endloop
   endfacet
   facet normal -1.000000e+000 -1.176432e-016 0.000000e+000
      outer loop
         vertex 8.823243e-018 1.037995e-033 0.000000e+000
         vertex -3.128397e-018 1.015922e-001 -1.103586e-001
         vertex -8.284700e-019 8.204222e-002 -1.255750e-001
      endloop
   endfacet
   facet normal -1.000000e+000 -1.176432e-016 0.000000e+000
      outer loop
         vertex 8.823243e-018 1.037995e-033 0.000000e+000
         vertex -8.284700e-019 8.204222e-002 -1.255750e-001
         vertex 1.734730e-018 6.025432e-002 -1.373660e-001
      endloop
   endfacet
   facet normal -1.000000e+000 -1.176432e-016 0.000000e+000
      outer loop
         vertex -8.582568e-018 1.479542e-001 -2.468919e-002
         vertex -7.867107e-018 1.418726e-001 -4.870492e-002
         vertex 8.823243e-018 1.037995e-033 0.000000e+000
      endloop
   endfacet
   facet normal -1.000000e+000 -1.176432e-016 0.000000e+000
      outer loop
         vertex 8.823243e-018 1.037995e-033 0.000000e+000
         vertex -7.867107e-018 1.418726e-001 -4.870492e-002
         vertex -6.696378e-018 1.319211e-001 -7.139211e-002
      endloop
   endfacet
   facet normal -1.000000e+000 -1.176432e-016 0.000000e+000
      outer loop
         vertex 8.823243e-018 1.037995e-033 0.000000e+000
         vertex -6.696378e-018 1.319211e-001 -7.139211e-002
         vertex -5.102314e-018 1.183711e-001 -9.213191e-002
      endloop
   endfacet
endsolid