solid vertical_2_diagonal_link_pin_Default_sldprt
   facet normal -1.000000e+000 -8.692244e-017 0.000000e+000
      outer loop
         vertex -7.823019e-018 1.800000e-001 0.000000e+000
         vertex -7.597966e-018 1.774109e-001 -3.042015e-002
         vertex 7.823019e-018 6.799959e-034 0.000000e+000
      endloop
   endfacet
   facet normal -1.000000e+000 -8.692244e-017 0.000000e+000
      outer loop
         vertex -5.836193e-018 1.571425e-001 8.778509e-002
         vertex -6.929278e-018 1.697179e-001 5.996516e-002
         vertex 7.823019e-018 6.799959e-034 0.000000e+000
      endloop
   endfacet
   facet normal -1.000000e+000 -8.692244e-017 0.000000e+000
      outer loop
         vertex 7.823019e-018 6.799959e-034 0.000000e+000
         vertex -6.929278e-018 1.697179e-001 5.996516e-002
         vertex -7.597966e-018 1.774109e-001 3.042015e-002
      endloop
   endfacet
   facet normal -1.000000e+000 -8.692244e-017 0.000000e+000
      outer loop
         vertex 7.823019e-018 6.799959e-034 0.000000e+000
         vertex -7.597966e-018 1.774109e-001 3.042015e-002
         vertex -7.823019e-018 1.800000e-001 0.000000e+000
      endloop
   endfacet
   facet normal -1.000000e+000 -8.692244e-017 0.000000e+000
      outer loop
         vertex -3.803127e-019 9.437530e-002 1.532753e-001
         vertex -2.513923e-018 1.189215e-001 1.351210e-001
         vertex 7.823019e-018 6.799959e-034 0.000000e+000
      endloop
   endfacet
   facet normal -1.000000e+000 -8.692244e-017 0.000000e+000
      outer loop
         vertex 7.823019e-018 6.799959e-034 0.000000e+000
         vertex -2.513923e-018 1.189215e-001 1.351210e-001
         vertex -4.350158e-018 1.400464e-001 1.130796e-001
      endloop
   endfacet
   facet normal -1.000000e+000 -8.692244e-017 0.000000e+000
      outer loop
         vertex 7.823019e-018 6.799959e-034 0.000000e+000
         vertex -4.350158e-018 1.400464e-001 1.130796e-001
         vertex -5.836193e-018 1.571425e-001 8.778509e-002
      endloop
   endfacet
   facet normal -1.000000e+000 -8.692244e-017 0.000000e+000
      outer loop
         vertex 7.158983e-018 7.639416e-003 1.798378e-001
         vertex 4.526724e-018 3.792227e-002 1.759599e-001
         vertex 7.823019e-018 6.799959e-034 0.000000e+000
      endloop
   endfacet
   facet normal -1.000000e+000 -8.692244e-017 0.000000e+000
      outer loop
         vertex 7.823019e-018 6.799959e-034 0.000000e+000
         vertex 4.526724e-018 3.792227e-002 1.759599e-001
         vertex 1.989292e-018 6.711417e-002 1.670200e-001
      endloop
   endfacet
   facet normal -1.000000e+000 -8.692244e-017 0.000000e+000
      outer loop
         vertex 7.823019e-018 6.799959e-034 0.000000e+000
         vertex 1.989292e-018 6.711417e-002 1.670200e-001
         vertex -3.803127e-019 9.437530e-002 1.532753e-001
      endloop
   endfacet
   facet normal -1.000000e+000 -8.692244e-017 0.000000e+000
      outer loop
         vertex 1.486693e-017 -8.103668e-002 1.607267e-001
         vertex 1.240454e-017 -5.270810e-002 1.721100e-001
         vertex 7.823019e-018 6.799959e-034 0.000000e+000
      endloop
   endfacet
   facet normal -1.000000e+000 -8.692244e-017 0.000000e+000
      outer loop
         vertex 7.823019e-018 6.799959e-034 0.000000e+000
         vertex 1.240454e-017 -5.270810e-002 1.721100e-001
         vertex 9.810345e-018 -2.286321e-002 1.785421e-001
      endloop
   endfacet
   facet normal -1.000000e+000 -8.692244e-017 0.000000e+000
      outer loop
         vertex 7.823019e-018 6.799959e-034 0.000000e+000
         vertex 9.810345e-018 -2.286321e-002 1.785421e-001
         vertex 7.158983e-018 7.639416e-003 1.798378e-001
      endloop
   endfacet
   facet normal -1.000000e+000 -8.692244e-017 0.000000e+000
      outer loop
         vertex 2.078591e-017 -1.491317e-001 1.007955e-001
         vertex 1.911877e-017 -1.299521e-001 1.245490e-001
         vertex 7.823019e-018 6.799959e-034 0.000000e+000
      endloop
   endfacet
   facet normal -1.000000e+000 -8.692244e-017 0.000000e+000
      outer loop
         vertex 7.823019e-018 6.799959e-034 0.000000e+000
         vertex 1.911877e-017 -1.299521e-001 1.245490e-001
         vertex 1.712667e-017 -1.070340e-001 1.447195e-001
      endloop
   endfacet
   facet normal -1.000000e+000 -8.692244e-017 0.000000e+000
      outer loop
         vertex 7.823019e-018 6.799959e-034 0.000000e+000
         vertex 1.712667e-017 -1.070340e-001 1.447195e-001
         vertex 1.486693e-017 -8.103668e-002 1.607267e-001
      endloop
   endfacet
   facet normal -1.000000e+000 -8.692244e-017 0.000000e+000
      outer loop
         vertex 2.341269e-017 -1.793516e-001 1.526507e-002
         vertex 2.296421e-017 -1.741919e-001 4.535605e-002
         vertex 7.823019e-018 6.799959e-034 0.000000e+000
      endloop
   endfacet
   facet normal -1.000000e+000 -8.692244e-017 0.000000e+000
      outer loop
         vertex 7.823019e-018 6.799959e-034 0.000000e+000
         vertex 2.296421e-017 -1.741919e-001 4.535605e-002
         vertex 2.208014e-017 -1.640211e-001 7.414223e-002
      endloop
   endfacet
   facet normal -1.000000e+000 -8.692244e-017 0.000000e+000
      outer loop
         vertex 7.823019e-018 6.799959e-034 0.000000e+000
         vertex 2.208014e-017 -1.640211e-001 7.414223e-002
         vertex 2.078591e-017 -1.491317e-001 1.007955e-001
      endloop
   endfacet
   facet normal -1.000000e+000 -8.692244e-017 0.000000e+000
      outer loop
         vertex 2.208014e-017 -1.640211e-001 -7.414223e-002
         vertex 2.296421e-017 -1.741919e-001 -4.535605e-002
         vertex 7.823019e-018 6.799959e-034 0.000000e+000
      endloop
   endfacet
   facet normal -1.000000e+000 -8.692244e-017 0.000000e+000
      outer loop
         vertex 7.823019e-018 6.799959e-034 0.000000e+000
         vertex 2.296421e-017 -1.741919e-001 -4.535605e-002
         vertex 2.341269e-017 -1.793516e-001 -1.526507e-002
      endloop
   endfacet
   facet normal -1.000000e+000 -8.692244e-017 0.000000e+000
      outer loop
         vertex 7.823019e-018 6.799959e-034 0.000000e+000
         vertex 2.341269e-017 -1.793516e-001 -1.526507e-002
         vertex 2.341269e-017 -1.793516e-001 1.526507e-002
      endloop
   endfacet
   facet normal -1.000000e+000 -8.692244e-017 0.000000e+000
      outer loop
         vertex 1.712667e-017 -1.070340e-001 -1.447195e-001
         vertex 1.911877e-017 -1.299521e-001 -1.245490e-001
         vertex 7.823019e-018 6.799959e-034 0.000000e+000
      endloop
   endfacet
   facet normal -1.000000e+000 -8.692244e-017 0.000000e+000
      outer loop
         vertex 7.823019e-018 6.799959e-034 0.000000e+000
         vertex 1.911877e-017 -1.299521e-001 -1.245490e-001
         vertex 2.078591e-017 -1.491317e-001 -1.007955e-001
      endloop
   endfacet
   facet normal -1.000000e+000 -8.692244e-017 0.000000e+000
      outer loop
         vertex 7.823019e-018 6.799959e-034 0.000000e+000
         vertex 2.078591e-017 -1.491317e-001 -1.007955e-001
         vertex 2.208014e-017 -1.640211e-001 -7.414223e-002
      endloop
   endfacet
   facet normal -1.000000e+000 -8.692244e-017 0.000000e+000
      outer loop
         vertex 9.810345e-018 -2.286321e-002 -1.785421e-001
         vertex 1.240454e-017 -5.270810e-002 -1.721100e-001
         vertex 7.823019e-018 6.799959e-034 0.000000e+000
      endloop
   endfacet
   facet normal -1.000000e+000 -8.692244e-017 0.000000e+000
      outer loop
         vertex 7.823019e-018 6.799959e-034 0.000000e+000
         vertex 1.240454e-017 -5.270810e-002 -1.721100e-001
         vertex 1.486693e-017 -8.103668e-002 -1.607267e-001
      endloop
   endfacet
   facet normal -1.000000e+000 -8.692244e-017 0.000000e+000
      outer loop
         vertex 7.823019e-018 6.799959e-034 0.000000e+000
         vertex 1.486693e-017 -8.103668e-002 -1.607267e-001
         vertex 1.712667e-017 -1.070340e-001 -1.447195e-001
      endloop
   endfacet
   facet normal -1.000000e+000 -8.692244e-017 0.000000e+000
      outer loop
         vertex 1.989292e-018 6.711417e-002 -1.670200e-001
         vertex 4.526724e-018 3.792227e-002 -1.759599e-001
         vertex 7.823019e-018 6.799959e-034 0.000000e+000
      endloop
   endfacet
   facet normal -1.000000e+000 -8.692244e-017 0.000000e+000
      outer loop
         vertex 7.823019e-018 6.799959e-034 0.000000e+000
         vertex 4.526724e-018 3.792227e-002 -1.759599e-001
         vertex 7.158983e-018 7.639416e-003 -1.798378e-001
      endloop
   endfacet
   facet normal -1.000000e+000 -8.692244e-017 0.000000e+000
      outer loop
         vertex 7.823019e-018 6.799959e-034 0.000000e+000
         vertex 7.158983e-018 7.639416e-003 -1.798378e-001
         vertex 9.810345e-018 -2.286321e-002 -1.785421e-001
      endloop
   endfacet
   facet normal -1.000000e+000 -8.692244e-017 0.000000e+000
      outer loop
         vertex -4.350158e-018 1.400464e-001 -1.130796e-001
         vertex -2.513923e-018 1.189215e-001 -1.351210e-001
         vertex 7.823019e-018 6.799959e-034 0.000000e+000
      endloop
   endfacet
   facet normal -1.000000e+000 -8.692244e-017 0.000000e+000
      outer loop
         vertex 7.823019e-018 6.799959e-034 0.000000e+000
         vertex -2.513923e-018 1.189215e-001 -1.351210e-001
         vertex -3.803127e-019 9.437530e-002 -1.532753e-001
      endloop
   endfacet
   facet normal -1.000000e+000 -8.692244e-017 0.000000e+000
      outer loop
         vertex 7.823019e-018 6.799959e-034 0.000000e+000
         vertex -3.803127e-019 9.437530e-002 -1.532753e-001
         vertex 1.989292e-018 6.711417e-002 -1.670200e-001
      endloop
   endfacet
   facet normal -1.000000e+000 -8.692244e-017 0.000000e+000
      outer loop
         vertex -7.597966e-018 1.774109e-001 -3.042015e-002
         vertex -6.929278e-018 1.697179e-001 -5.996516e-002
         vertex 7.823019e-018 6.799959e-034 0.000000e+000
      endloop
   endfacet
   facet normal -1.000000e+000 -8.692244e-017 0.000000e+000
      outer loop
         vertex 7.823019e-018 6.799959e-034 0.000000e+000
         vertex -6.929278e-018 1.697179e-001 -5.996516e-002
         vertex -5.836193e-018 1.571425e-001 -8.778509e-002
      endloop
   endfacet
   facet normal -1.000000e+000 -8.692244e-017 0.000000e+000
      outer loop
         vertex 7.823019e-018 6.799959e-034 0.000000e+000
         vertex -5.836193e-018 1.571425e-001 -8.778509e-002
         vertex -4.350158e-018 1.400464e-001 -1.130796e-001
      endloop
   endfacet
   facet normal -8.636540e-017 9.935917e-001 1.130291e-001
      outer loop
         vertex 1.250000e-001 1.800000e-001 0.000000e+000
         vertex -1.542098e-017 1.774109e-001 3.042015e-002
         vertex 1.250000e-001 1.774109e-001 3.042015e-002
      endloop
   endfacet
   facet normal -8.470502e-017 9.744897e-001 2.244324e-001
      outer loop
         vertex 1.250000e-001 1.774109e-001 3.042015e-002
         vertex -1.542098e-017 1.774109e-001 3.042015e-002
         vertex -1.475230e-017 1.697179e-001 5.996516e-002
      endloop
   endfacet
   facet normal -8.346273e-017 9.601977e-001 2.793211e-001
      outer loop
         vertex 1.250000e-001 1.774109e-001 3.042015e-002
         vertex -1.475230e-017 1.697179e-001 5.996516e-002
         vertex 1.250000e-001 1.697179e-001 5.996516e-002
      endloop
   endfacet
   facet normal -8.018970e-017 9.225433e-001 3.858936e-001
      outer loop
         vertex 1.250000e-001 1.697179e-001 5.996516e-002
         vertex -1.475230e-017 1.697179e-001 5.996516e-002
         vertex -1.365921e-017 1.571425e-001 8.778509e-002
      endloop
   endfacet
   facet normal -7.815897e-017 8.991807e-001 4.375775e-001
      outer loop
         vertex 1.250000e-001 1.697179e-001 5.996516e-002
         vertex -1.365921e-017 1.571425e-001 8.778509e-002
         vertex 1.250000e-001 1.571425e-001 8.778509e-002
      endloop
   endfacet
   facet normal -7.336748e-017 8.440570e-001 5.362535e-001
      outer loop
         vertex 1.250000e-001 1.571425e-001 8.778509e-002
         vertex -1.365921e-017 1.571425e-001 8.778509e-002
         vertex -1.217318e-017 1.400464e-001 1.130796e-001
      endloop
   endfacet
   facet normal -7.060673e-017 8.122959e-001 5.832456e-001
      outer loop
         vertex 1.250000e-001 1.571425e-001 8.778509e-002
         vertex -1.217318e-017 1.400464e-001 1.130796e-001
         vertex 1.250000e-001 1.400464e-001 1.130796e-001
      endloop
   endfacet
   facet normal -6.443462e-017 7.412888e-001 6.711863e-001
      outer loop
         vertex 1.250000e-001 1.400464e-001 1.130796e-001
         vertex -1.217318e-017 1.400464e-001 1.130796e-001
         vertex -1.033694e-017 1.189215e-001 1.351210e-001
      endloop
   endfacet
   facet normal -6.102326e-017 7.020428e-001 7.121348e-001
      outer loop
         vertex 1.250000e-001 1.400464e-001 1.130796e-001
         vertex -1.033694e-017 1.189215e-001 1.351210e-001
         vertex 1.250000e-001 1.189215e-001 1.351210e-001
      endloop
   endfacet
   facet normal -5.364808e-017 6.171949e-001 7.868103e-001
      outer loop
         vertex 1.250000e-001 1.189215e-001 1.351210e-001
         vertex -1.033694e-017 1.189215e-001 1.351210e-001
         vertex -8.203332e-018 9.437530e-002 1.532753e-001
      endloop
   endfacet
   facet normal -4.968426e-017 5.715931e-001 8.205372e-001
      outer loop
         vertex 1.250000e-001 1.189215e-001 1.351210e-001
         vertex -8.203332e-018 9.437530e-002 1.532753e-001
         vertex 1.250000e-001 9.437530e-002 1.532753e-001
      endloop
   endfacet
   facet normal -4.131819e-017 4.753455e-001 8.797992e-001
      outer loop
         vertex 1.250000e-001 9.437530e-002 1.532753e-001
         vertex -8.203332e-018 9.437530e-002 1.532753e-001
         vertex -5.833727e-018 6.711417e-002 1.670200e-001
      endloop
   endfacet
   facet normal -3.691594e-017 4.246998e-001 9.053342e-001
      outer loop
         vertex 1.250000e-001 9.437530e-002 1.532753e-001
         vertex -5.833727e-018 6.711417e-002 1.670200e-001
         vertex 1.250000e-001 6.711417e-002 1.670200e-001
      endloop
   endfacet
   facet normal -2.779965e-017 3.198213e-001 9.474779e-001
      outer loop
         vertex 1.250000e-001 6.711417e-002 1.670200e-001
         vertex -5.833727e-018 6.711417e-002 1.670200e-001
         vertex -3.296296e-018 3.792227e-002 1.759599e-001
      endloop
   endfacet
   facet normal -2.308561e-017 2.655886e-001 9.640865e-001
      outer loop
         vertex 1.250000e-001 6.711417e-002 1.670200e-001
         vertex -3.296296e-018 3.792227e-002 1.759599e-001
         vertex 1.250000e-001 3.792227e-002 1.759599e-001
      endloop
   endfacet
   facet normal -1.348136e-017 1.550965e-001 9.878993e-001
      outer loop
         vertex 1.250000e-001 3.792227e-002 1.759599e-001
         vertex -3.296296e-018 3.792227e-002 1.759599e-001
         vertex -6.640367e-019 7.639416e-003 1.798378e-001
      endloop
   endfacet
   facet normal -8.591152e-018 9.883699e-002 9.951036e-001
      outer loop
         vertex 1.250000e-001 3.792227e-002 1.759599e-001
         vertex -6.640367e-019 7.639416e-003 1.798378e-001
         vertex 1.250000e-001 7.639416e-003 1.798378e-001
      endloop
   endfacet
   facet normal 1.224759e-018 -1.409025e-002 9.999007e-001
      outer loop
         vertex 1.250000e-001 7.639416e-003 1.798378e-001
         vertex -6.640367e-019 7.639416e-003 1.798378e-001
         vertex 1.987326e-018 -2.286321e-002 1.785421e-001
      endloop
   endfacet
   facet normal 6.150460e-018 -7.075802e-002 9.974935e-001
      outer loop
         vertex 1.250000e-001 7.639416e-003 1.798378e-001
         vertex 1.987326e-018 -2.286321e-002 1.785421e-001
         vertex 1.250000e-001 -2.286321e-002 1.785421e-001
      endloop
   endfacet
   facet normal 1.589565e-017 -1.828716e-001 9.831368e-001
      outer loop
         vertex 1.250000e-001 -2.286321e-002 1.785421e-001
         vertex 1.987326e-018 -2.286321e-002 1.785421e-001
         vertex 4.581516e-018 -5.270810e-002 1.721100e-001
      endloop
   endfacet
   facet normal 2.071513e-017 -2.383175e-001 9.711873e-001
      outer loop
         vertex 1.250000e-001 -2.286321e-002 1.785421e-001
         vertex 4.581516e-018 -5.270810e-002 1.721100e-001
         vertex 1.250000e-001 -5.270810e-002 1.721100e-001
      endloop
   endfacet
   facet normal 3.010925e-017 -3.463921e-001 9.380898e-001
      outer loop
         vertex 1.250000e-001 -5.270810e-002 1.721100e-001
         vertex 4.581516e-018 -5.270810e-002 1.721100e-001
         vertex 7.043905e-018 -8.103668e-002 1.607267e-001
      endloop
   endfacet
   facet normal 3.468387e-017 -3.990209e-001 9.169418e-001
      outer loop
         vertex 1.250000e-001 -5.270810e-002 1.721100e-001
         vertex 7.043905e-018 -8.103668e-002 1.607267e-001
         vertex 1.250000e-001 -8.103668e-002 1.607267e-001
      endloop
   endfacet
   facet normal 4.345665e-017 -4.999475e-001 8.660557e-001
      outer loop
         vertex 1.250000e-001 -8.103668e-002 1.607267e-001
         vertex 7.043905e-018 -8.103668e-002 1.607267e-001
         vertex 9.303654e-018 -1.070340e-001 1.447195e-001
      endloop
   endfacet
   facet normal 4.765481e-017 -5.482453e-001 8.363176e-001
      outer loop
         vertex 1.250000e-001 -8.103668e-002 1.607267e-001
         vertex 9.303654e-018 -1.070340e-001 1.447195e-001
         vertex 1.250000e-001 -1.070340e-001 1.447195e-001
      endloop
   endfacet
   facet normal 5.555389e-017 -6.391203e-001 7.691067e-001
      outer loop
         vertex 1.250000e-001 -1.070340e-001 1.447195e-001
         vertex 9.303654e-018 -1.070340e-001 1.447195e-001
         vertex 1.129575e-017 -1.299521e-001 1.245490e-001
      endloop
   endfacet
   facet normal 5.925482e-017 -6.816977e-001 7.316340e-001
      outer loop
         vertex 1.250000e-001 -1.070340e-001 1.447195e-001
         vertex 1.129575e-017 -1.299521e-001 1.245490e-001
         vertex 1.250000e-001 -1.299521e-001 1.245490e-001
      endloop
   endfacet
   facet normal 6.605295e-017 -7.599069e-001 6.500320e-001
      outer loop
         vertex 1.250000e-001 -1.299521e-001 1.245490e-001
         vertex 1.129575e-017 -1.299521e-001 1.245490e-001
         vertex 1.296289e-017 -1.491317e-001 1.007955e-001
      endloop
   endfacet
   facet normal 6.915017e-017 -7.955388e-001 6.059027e-001
      outer loop
         vertex 1.250000e-001 -1.299521e-001 1.245490e-001
         vertex 1.296289e-017 -1.491317e-001 1.007955e-001
         vertex 1.250000e-001 -1.491317e-001 1.007955e-001
      endloop
   endfacet
   facet normal 7.465179e-017 -8.588322e-001 5.122570e-001
      outer loop
         vertex 1.250000e-001 -1.491317e-001 1.007955e-001
         vertex 1.296289e-017 -1.491317e-001 1.007955e-001
         vertex 1.425712e-017 -1.640211e-001 7.414223e-002
      endloop
   endfacet
   facet normal 7.705620e-017 -8.864937e-001 4.627406e-001
      outer loop
         vertex 1.250000e-001 -1.491317e-001 1.007955e-001
         vertex 1.425712e-017 -1.640211e-001 7.414223e-002
         vertex 1.250000e-001 -1.640211e-001 7.414223e-002
      endloop
   endfacet
   facet normal 8.110303e-017 -9.330506e-001 3.597453e-001
      outer loop
         vertex 1.250000e-001 -1.640211e-001 7.414223e-002
         vertex 1.425712e-017 -1.640211e-001 7.414223e-002
         vertex 1.514119e-017 -1.741919e-001 4.535605e-002
      endloop
   endfacet
   facet normal 8.274546e-017 -9.519458e-001 3.062663e-001
      outer loop
         vertex 1.250000e-001 -1.640211e-001 7.414223e-002
         vertex 1.514119e-017 -1.741919e-001 4.535605e-002
         vertex 1.250000e-001 -1.741919e-001 4.535605e-002
      endloop
   endfacet
   facet normal 8.522108e-017 -9.804267e-001 1.968844e-001
      outer loop
         vertex 1.250000e-001 -1.741919e-001 4.535605e-002
         vertex 1.514119e-017 -1.741919e-001 4.535605e-002
         vertex 1.558967e-017 -1.793516e-001 1.526507e-002
      endloop
   endfacet
   facet normal 8.605428e-017 -9.900123e-001 1.409813e-001
      outer loop
         vertex 1.250000e-001 -1.741919e-001 4.535605e-002
         vertex 1.558967e-017 -1.793516e-001 1.526507e-002
         vertex 1.250000e-001 -1.793516e-001 1.526507e-002
      endloop
   endfacet
   facet normal 8.688747e-017 -9.995977e-001 2.835944e-002
      outer loop
         vertex 1.250000e-001 -1.793516e-001 1.526507e-002
         vertex 1.558967e-017 -1.793516e-001 1.526507e-002
         vertex 1.558967e-017 -1.793516e-001 -1.526507e-002
      endloop
   endfacet
   facet normal 8.688747e-017 -9.995977e-001 -2.835944e-002
      outer loop
         vertex 1.250000e-001 -1.793516e-001 1.526507e-002
         vertex 1.558967e-017 -1.793516e-001 -1.526507e-002
         vertex 1.250000e-001 -1.793516e-001 -1.526507e-002
      endloop
   endfacet
   facet normal 8.605427e-017 -9.900123e-001 -1.409813e-001
      outer loop
         vertex 1.250000e-001 -1.793516e-001 -1.526507e-002
         vertex 1.558967e-017 -1.793516e-001 -1.526507e-002
         vertex 1.514119e-017 -1.741919e-001 -4.535605e-002
      endloop
   endfacet
   facet normal 8.522108e-017 -9.804267e-001 -1.968844e-001
      outer loop
         vertex 1.250000e-001 -1.793516e-001 -1.526507e-002
         vertex 1.514119e-017 -1.741919e-001 -4.535605e-002
         vertex 1.250000e-001 -1.741919e-001 -4.535605e-002
      endloop
   endfacet
   facet normal 8.274546e-017 -9.519458e-001 -3.062663e-001
      outer loop
         vertex 1.250000e-001 -1.741919e-001 -4.535605e-002
         vertex 1.514119e-017 -1.741919e-001 -4.535605e-002
         vertex 1.425712e-017 -1.640211e-001 -7.414223e-002
      endloop
   endfacet
   facet normal 8.110303e-017 -9.330506e-001 -3.597453e-001
      outer loop
         vertex 1.250000e-001 -1.741919e-001 -4.535605e-002
         vertex 1.425712e-017 -1.640211e-001 -7.414223e-002
         vertex 1.250000e-001 -1.640211e-001 -7.414223e-002
      endloop
   endfacet
   facet normal 7.705620e-017 -8.864937e-001 -4.627406e-001
      outer loop
         vertex 1.250000e-001 -1.640211e-001 -7.414223e-002
         vertex 1.425712e-017 -1.640211e-001 -7.414223e-002
         vertex 1.296289e-017 -1.491317e-001 -1.007955e-001
      endloop
   endfacet
   facet normal 7.465178e-017 -8.588322e-001 -5.122570e-001
      outer loop
         vertex 1.250000e-001 -1.640211e-001 -7.414223e-002
         vertex 1.296289e-017 -1.491317e-001 -1.007955e-001
         vertex 1.250000e-001 -1.491317e-001 -1.007955e-001
      endloop
   endfacet
   facet normal 6.915017e-017 -7.955388e-001 -6.059027e-001
      outer loop
         vertex 1.250000e-001 -1.491317e-001 -1.007955e-001
         vertex 1.296289e-017 -1.491317e-001 -1.007955e-001
         vertex 1.129575e-017 -1.299521e-001 -1.245490e-001
      endloop
   endfacet
   facet normal 6.605295e-017 -7.599069e-001 -6.500320e-001
      outer loop
         vertex 1.250000e-001 -1.491317e-001 -1.007955e-001
         vertex 1.129575e-017 -1.299521e-001 -1.245490e-001
         vertex 1.250000e-001 -1.299521e-001 -1.245490e-001
      endloop
   endfacet
   facet normal 5.925482e-017 -6.816977e-001 -7.316340e-001
      outer loop
         vertex 1.250000e-001 -1.299521e-001 -1.245490e-001
         vertex 1.129575e-017 -1.299521e-001 -1.245490e-001
         vertex 9.303654e-018 -1.070340e-001 -1.447195e-001
      endloop
   endfacet
   facet normal 5.555389e-017 -6.391203e-001 -7.691067e-001
      outer loop
         vertex 1.250000e-001 -1.299521e-001 -1.245490e-001
         vertex 9.303654e-018 -1.070340e-001 -1.447195e-001
         vertex 1.250000e-001 -1.070340e-001 -1.447195e-001
      endloop
   endfacet
   facet normal 4.765481e-017 -5.482453e-001 -8.363176e-001
      outer loop
         vertex 1.250000e-001 -1.070340e-001 -1.447195e-001
         vertex 9.303654e-018 -1.070340e-001 -1.447195e-001
         vertex 7.043905e-018 -8.103668e-002 -1.607267e-001
      endloop
   endfacet
   facet normal 4.345665e-017 -4.999475e-001 -8.660557e-001
      outer loop
         vertex 1.250000e-001 -1.070340e-001 -1.447195e-001
         vertex 7.043905e-018 -8.103668e-002 -1.607267e-001
         vertex 1.250000e-001 -8.103668e-002 -1.607267e-001
      endloop
   endfacet
   facet normal 3.468387e-017 -3.990209e-001 -9.169418e-001
      outer loop
         vertex 1.250000e-001 -8.103668e-002 -1.607267e-001
         vertex 7.043905e-018 -8.103668e-002 -1.607267e-001
         vertex 4.581516e-018 -5.270810e-002 -1.721100e-001
      endloop
   endfacet
   facet normal 3.010925e-017 -3.463921e-001 -9.380898e-001
      outer loop
         vertex 1.250000e-001 -8.103668e-002 -1.607267e-001
         vertex 4.581516e-018 -5.270810e-002 -1.721100e-001
         vertex 1.250000e-001 -5.270810e-002 -1.721100e-001
      endloop
   endfacet
   facet normal 2.071513e-017 -2.383175e-001 -9.711873e-001
      outer loop
         vertex 1.250000e-001 -5.270810e-002 -1.721100e-001
         vertex 4.581516e-018 -5.270810e-002 -1.721100e-001
         vertex 1.987326e-018 -2.286321e-002 -1.785421e-001
      endloop
   endfacet
   facet normal 1.589565e-017 -1.828716e-001 -9.831368e-001
      outer loop
         vertex 1.250000e-001 -5.270810e-002 -1.721100e-001
         vertex 1.987326e-018 -2.286321e-002 -1.785421e-001
         vertex 1.250000e-001 -2.286321e-002 -1.785421e-001
      endloop
   endfacet
   facet normal 6.150459e-018 -7.075802e-002 -9.974935e-001
      outer loop
         vertex 1.250000e-001 -2.286321e-002 -1.785421e-001
         vertex 1.987326e-018 -2.286321e-002 -1.785421e-001
         vertex -6.640367e-019 7.639416e-003 -1.798378e-001
      endloop
   endfacet
   facet normal 1.224759e-018 -1.409025e-002 -9.999007e-001
      outer loop
         vertex 1.250000e-001 -2.286321e-002 -1.785421e-001
         vertex -6.640367e-019 7.639416e-003 -1.798378e-001
         vertex 1.250000e-001 7.639416e-003 -1.798378e-001
      endloop
   endfacet
   facet normal -8.591152e-018 9.883699e-002 -9.951036e-001
      outer loop
         vertex 1.250000e-001 7.639416e-003 -1.798378e-001
         vertex -6.640367e-019 7.639416e-003 -1.798378e-001
         vertex -3.296296e-018 3.792227e-002 -1.759599e-001
      endloop
   endfacet
   facet normal -1.348136e-017 1.550965e-001 -9.878993e-001
      outer loop
         vertex 1.250000e-001 7.639416e-003 -1.798378e-001
         vertex -3.296296e-018 3.792227e-002 -1.759599e-001
         vertex 1.250000e-001 3.792227e-002 -1.759599e-001
      endloop
   endfacet
   facet normal -2.308561e-017 2.655886e-001 -9.640865e-001
      outer loop
         vertex 1.250000e-001 3.792227e-002 -1.759599e-001
         vertex -3.296296e-018 3.792227e-002 -1.759599e-001
         vertex -5.833727e-018 6.711417e-002 -1.670200e-001
      endloop
   endfacet
   facet normal -2.779965e-017 3.198213e-001 -9.474779e-001
      outer loop
         vertex 1.250000e-001 3.792227e-002 -1.759599e-001
         vertex -5.833727e-018 6.711417e-002 -1.670200e-001
         vertex 1.250000e-001 6.711417e-002 -1.670200e-001
      endloop
   endfacet
   facet normal -3.691594e-017 4.246998e-001 -9.053342e-001
      outer loop
         vertex 1.250000e-001 6.711417e-002 -1.670200e-001
         vertex -5.833727e-018 6.711417e-002 -1.670200e-001
         vertex -8.203332e-018 9.437530e-002 -1.532753e-001
      endloop
   endfacet
   facet normal -4.131819e-017 4.753455e-001 -8.797992e-001
      outer loop
         vertex 1.250000e-001 6.711417e-002 -1.670200e-001
         vertex -8.203332e-018 9.437530e-002 -1.532753e-001
         vertex 1.250000e-001 9.437530e-002 -1.532753e-001
      endloop
   endfacet
   facet normal -4.968426e-017 5.715931e-001 -8.205372e-001
      outer loop
         vertex 1.250000e-001 9.437530e-002 -1.532753e-001
         vertex -8.203332e-018 9.437530e-002 -1.532753e-001
         vertex -1.033694e-017 1.189215e-001 -1.351210e-001
      endloop
   endfacet
   facet normal -5.364808e-017 6.171949e-001 -7.868103e-001
      outer loop
         vertex 1.250000e-001 9.437530e-002 -1.532753e-001
         vertex -1.033694e-017 1.189215e-001 -1.351210e-001
         vertex 1.250000e-001 1.189215e-001 -1.351210e-001
      endloop
   endfacet
   facet normal -6.102326e-017 7.020428e-001 -7.121348e-001
      outer loop
         vertex 1.250000e-001 1.189215e-001 -1.351210e-001
         vertex -1.033694e-017 1.189215e-001 -1.351210e-001
         vertex -1.217318e-017 1.400464e-001 -1.130796e-001
      endloop
   endfacet
   facet normal -6.443462e-017 7.412888e-001 -6.711863e-001
      outer loop
         vertex 1.250000e-001 1.189215e-001 -1.351210e-001
         vertex -1.217318e-017 1.400464e-001 -1.130796e-001
         vertex 1.250000e-001 1.400464e-001 -1.130796e-001
      endloop
   endfacet
   facet normal -7.060673e-017 8.122959e-001 -5.832456e-001
      outer loop
         vertex 1.250000e-001 1.400464e-001 -1.130796e-001
         vertex -1.217318e-017 1.400464e-001 -1.130796e-001
         vertex -1.365921e-017 1.571425e-001 -8.778509e-002
      endloop
   endfacet
   facet normal -7.336748e-017 8.440570e-001 -5.362535e-001
      outer loop
         vertex 1.250000e-001 1.400464e-001 -1.130796e-001
         vertex -1.365921e-017 1.571425e-001 -8.778509e-002
         vertex 1.250000e-001 1.571425e-001 -8.778509e-002
      endloop
   endfacet
   facet normal -7.815897e-017 8.991807e-001 -4.375775e-001
      outer loop
         vertex 1.250000e-001 1.571425e-001 -8.778509e-002
         vertex -1.365921e-017 1.571425e-001 -8.778509e-002
         vertex -1.475230e-017 1.697179e-001 -5.996516e-002
      endloop
   endfacet
   facet normal -8.018970e-017 9.225433e-001 -3.858936e-001
      outer loop
         vertex 1.250000e-001 1.571425e-001 -8.778509e-002
         vertex -1.475230e-017 1.697179e-001 -5.996516e-002
         vertex 1.250000e-001 1.697179e-001 -5.996516e-002
      endloop
   endfacet
   facet normal -8.346273e-017 9.601977e-001 -2.793211e-001
      outer loop
         vertex 1.250000e-001 1.697179e-001 -5.996516e-002
         vertex -1.475230e-017 1.697179e-001 -5.996516e-002
         vertex -1.542098e-017 1.774109e-001 -3.042015e-002
      endloop
   endfacet
   facet normal -8.470502e-017 9.744897e-001 -2.244324e-001
      outer loop
         vertex 1.250000e-001 1.697179e-001 -5.996516e-002
         vertex -1.542098e-017 1.774109e-001 -3.042015e-002
         vertex 1.250000e-001 1.774109e-001 -3.042015e-002
      endloop
   endfacet
   facet normal -8.636540e-017 9.935917e-001 -1.130291e-001
      outer loop
         vertex 1.250000e-001 1.774109e-001 -3.042015e-002
         vertex -1.542098e-017 1.774109e-001 -3.042015e-002
         vertex -1.564604e-017 1.800000e-001 0.000000e+000
      endloop
   endfacet
   facet normal -8.678351e-017 9.984018e-001 -5.651454e-002
      outer loop
         vertex 1.250000e-001 1.774109e-001 -3.042015e-002
         vertex -1.564604e-017 1.800000e-001 0.000000e+000
         vertex 1.250000e-001 1.800000e-001 0.000000e+000
      endloop
   endfacet
   facet normal -8.678351e-017 9.984018e-001 5.651454e-002
      outer loop
         vertex 1.250000e-001 1.800000e-001 0.000000e+000
         vertex -1.564604e-017 1.800000e-001 0.000000e+000
         vertex -1.542098e-017 1.774109e-001 3.042015e-002
      endloop
   endfacet
   facet normal 1.000000e+000 8.692244e-017 0.000000e+000
      outer loop
         vertex 1.250000e-001 1.232020e-001 2.112510e-002
         vertex 1.250000e-001 1.774109e-001 3.042015e-002
         vertex 1.250000e-001 1.178597e-001 4.164248e-002
      endloop
   endfacet
   facet normal 1.000000e+000 8.692244e-017 0.000000e+000
      outer loop
         vertex 1.250000e-001 1.178597e-001 4.164248e-002
         vertex 1.250000e-001 1.774109e-001 3.042015e-002
         vertex 1.250000e-001 1.697179e-001 5.996516e-002
      endloop
   endfacet
   facet normal 1.000000e+000 8.692244e-017 0.000000e+000
      outer loop
         vertex 1.250000e-001 1.178597e-001 4.164248e-002
         vertex 1.250000e-001 1.697179e-001 5.996516e-002
         vertex 1.250000e-001 1.091268e-001 6.096187e-002
      endloop
   endfacet
   facet normal 1.000000e+000 8.692244e-017 0.000000e+000
      outer loop
         vertex 1.250000e-001 1.091268e-001 6.096187e-002
         vertex 1.250000e-001 1.697179e-001 5.996516e-002
         vertex 1.250000e-001 1.571425e-001 8.778509e-002
      endloop
   endfacet
   facet normal 1.000000e+000 8.692244e-017 0.000000e+000
      outer loop
         vertex 1.250000e-001 1.091268e-001 6.096187e-002
         vertex 1.250000e-001 1.571425e-001 8.778509e-002
         vertex 1.250000e-001 9.725447e-002 7.852750e-002
      endloop
   endfacet
   facet normal 1.000000e+000 8.692244e-017 0.000000e+000
      outer loop
         vertex 1.250000e-001 9.725447e-002 7.852750e-002
         vertex 1.250000e-001 1.571425e-001 8.778509e-002
         vertex 1.250000e-001 1.400464e-001 1.130796e-001
      endloop
   endfacet
   facet normal 1.000000e+000 8.692244e-017 0.000000e+000
      outer loop
         vertex 1.250000e-001 9.725447e-002 7.852750e-002
         vertex 1.250000e-001 1.400464e-001 1.130796e-001
         vertex 1.250000e-001 8.258434e-002 9.383404e-002
      endloop
   endfacet
   facet normal 1.000000e+000 8.692244e-017 0.000000e+000
      outer loop
         vertex 1.250000e-001 8.258434e-002 9.383404e-002
         vertex 1.250000e-001 1.400464e-001 1.130796e-001
         vertex 1.250000e-001 1.189215e-001 1.351210e-001
      endloop
   endfacet
   facet normal 1.000000e+000 8.692244e-017 0.000000e+000
      outer loop
         vertex 1.250000e-001 8.258434e-002 9.383404e-002
         vertex 1.250000e-001 1.189215e-001 1.351210e-001
         vertex 1.250000e-001 6.553841e-002 1.064411e-001
      endloop
   endfacet
   facet normal 1.000000e+000 8.692244e-017 0.000000e+000
      outer loop
         vertex 1.250000e-001 6.553841e-002 1.064411e-001
         vertex 1.250000e-001 1.189215e-001 1.351210e-001
         vertex 1.250000e-001 9.437530e-002 1.532753e-001
      endloop
   endfacet
   facet normal 1.000000e+000 8.692244e-017 0.000000e+000
      outer loop
         vertex 1.250000e-001 6.553841e-002 1.064411e-001
         vertex 1.250000e-001 9.437530e-002 1.532753e-001
         vertex 1.250000e-001 4.660706e-002 1.159861e-001
      endloop
   endfacet
   facet normal 1.000000e+000 8.692244e-017 0.000000e+000
      outer loop
         vertex 1.250000e-001 4.660706e-002 1.159861e-001
         vertex 1.250000e-001 9.437530e-002 1.532753e-001
         vertex 1.250000e-001 6.711417e-002 1.670200e-001
      endloop
   endfacet
   facet normal 1.000000e+000 8.692244e-017 0.000000e+000
      outer loop
         vertex 1.250000e-001 4.660706e-002 1.159861e-001
         vertex 1.250000e-001 6.711417e-002 1.670200e-001
         vertex 1.250000e-001 2.633491e-002 1.221944e-001
      endloop
   endfacet
   facet normal 1.000000e+000 8.692244e-017 0.000000e+000
      outer loop
         vertex 1.250000e-001 2.633491e-002 1.221944e-001
         vertex 1.250000e-001 6.711417e-002 1.670200e-001
         vertex 1.250000e-001 3.792227e-002 1.759599e-001
      endloop
   endfacet
   facet normal 1.000000e+000 8.692244e-017 0.000000e+000
      outer loop
         vertex 1.250000e-001 2.633491e-002 1.221944e-001
         vertex 1.250000e-001 3.792227e-002 1.759599e-001
         vertex 1.250000e-001 5.305151e-003 1.248874e-001
      endloop
   endfacet
   facet normal 1.000000e+000 8.692244e-017 0.000000e+000
      outer loop
         vertex 1.250000e-001 5.305151e-003 1.248874e-001
         vertex 1.250000e-001 3.792227e-002 1.759599e-001
         vertex 1.250000e-001 7.639416e-003 1.798378e-001
      endloop
   endfacet
   facet normal 1.000000e+000 8.692244e-017 0.000000e+000
      outer loop
         vertex 1.250000e-001 5.305151e-003 1.248874e-001
         vertex 1.250000e-001 7.639416e-003 1.798378e-001
         vertex 1.250000e-001 -1.587723e-002 1.239876e-001
      endloop
   endfacet
   facet normal 1.000000e+000 8.692244e-017 0.000000e+000
      outer loop
         vertex 1.250000e-001 -1.587723e-002 1.239876e-001
         vertex 1.250000e-001 7.639416e-003 1.798378e-001
         vertex 1.250000e-001 -2.286321e-002 1.785421e-001
      endloop
   endfacet
   facet normal 1.000000e+000 8.692244e-017 0.000000e+000
      outer loop
         vertex 1.250000e-001 -1.587723e-002 1.239876e-001
         vertex 1.250000e-001 -2.286321e-002 1.785421e-001
         vertex 1.250000e-001 -3.660285e-002 1.195208e-001
      endloop
   endfacet
   facet normal 1.000000e+000 8.692244e-017 0.000000e+000
      outer loop
         vertex 1.250000e-001 -3.660285e-002 1.195208e-001
         vertex 1.250000e-001 -2.286321e-002 1.785421e-001
         vertex 1.250000e-001 -5.270810e-002 1.721100e-001
      endloop
   endfacet
   facet normal 1.000000e+000 8.692244e-017 0.000000e+000
      outer loop
         vertex 1.250000e-001 -3.660285e-002 1.195208e-001
         vertex 1.250000e-001 -5.270810e-002 1.721100e-001
         vertex 1.250000e-001 -5.627547e-002 1.116157e-001
      endloop
   endfacet
   facet normal 1.000000e+000 8.692244e-017 0.000000e+000
      outer loop
         vertex 1.250000e-001 -5.627547e-002 1.116157e-001
         vertex 1.250000e-001 -5.270810e-002 1.721100e-001
         vertex 1.250000e-001 -8.103668e-002 1.607267e-001
      endloop
   endfacet
   facet normal 1.000000e+000 8.692244e-017 0.000000e+000
      outer loop
         vertex 1.250000e-001 -5.627547e-002 1.116157e-001
         vertex 1.250000e-001 -8.103668e-002 1.607267e-001
         vertex 1.250000e-001 -7.432915e-002 1.004996e-001
      endloop
   endfacet
   facet normal 1.000000e+000 8.692244e-017 0.000000e+000
      outer loop
         vertex 1.250000e-001 -7.432915e-002 1.004996e-001
         vertex 1.250000e-001 -8.103668e-002 1.607267e-001
         vertex 1.250000e-001 -1.070340e-001 1.447195e-001
      endloop
   endfacet
   facet normal 1.000000e+000 8.692244e-017 0.000000e+000
      outer loop
         vertex 1.250000e-001 -7.432915e-002 1.004996e-001
         vertex 1.250000e-001 -1.070340e-001 1.447195e-001
         vertex 1.250000e-001 -9.024452e-002 8.649236e-002
      endloop
   endfacet
   facet normal 1.000000e+000 8.692244e-017 0.000000e+000
      outer loop
         vertex 1.250000e-001 -9.024452e-002 8.649236e-002
         vertex 1.250000e-001 -1.070340e-001 1.447195e-001
         vertex 1.250000e-001 -1.299521e-001 1.245490e-001
      endloop
   endfacet
   facet normal 1.000000e+000 8.692244e-017 0.000000e+000
      outer loop
         vertex 1.250000e-001 -9.024452e-002 8.649236e-002
         vertex 1.250000e-001 -1.299521e-001 1.245490e-001
         vertex 1.250000e-001 -1.035637e-001 6.999685e-002
      endloop
   endfacet
   facet normal 1.000000e+000 8.692244e-017 0.000000e+000
      outer loop
         vertex 1.250000e-001 -1.035637e-001 6.999685e-002
         vertex 1.250000e-001 -1.299521e-001 1.245490e-001
         vertex 1.250000e-001 -1.491317e-001 1.007955e-001
      endloop
   endfacet
   facet normal 1.000000e+000 8.692244e-017 0.000000e+000
      outer loop
         vertex 1.250000e-001 -1.035637e-001 6.999685e-002
         vertex 1.250000e-001 -1.491317e-001 1.007955e-001
         vertex 1.250000e-001 -1.139036e-001 5.148765e-002
      endloop
   endfacet
   facet normal 1.000000e+000 8.692244e-017 0.000000e+000
      outer loop
         vertex 1.250000e-001 -1.139036e-001 5.148765e-002
         vertex 1.250000e-001 -1.491317e-001 1.007955e-001
         vertex 1.250000e-001 -1.640211e-001 7.414223e-002
      endloop
   endfacet
   facet normal 1.000000e+000 8.692244e-017 0.000000e+000
      outer loop
         vertex 1.250000e-001 -1.139036e-001 5.148765e-002
         vertex 1.250000e-001 -1.640211e-001 7.414223e-002
         vertex 1.250000e-001 -1.209666e-001 3.149726e-002
      endloop
   endfacet
   facet normal 1.000000e+000 8.692244e-017 0.000000e+000
      outer loop
         vertex 1.250000e-001 -1.209666e-001 3.149726e-002
         vertex 1.250000e-001 -1.640211e-001 7.414223e-002
         vertex 1.250000e-001 -1.741919e-001 4.535605e-002
      endloop
   endfacet
   facet normal 1.000000e+000 8.692244e-017 0.000000e+000
      outer loop
         vertex 1.250000e-001 -1.209666e-001 3.149726e-002
         vertex 1.250000e-001 -1.741919e-001 4.535605e-002
         vertex 1.250000e-001 -1.245497e-001 1.060074e-002
      endloop
   endfacet
   facet normal 1.000000e+000 8.692244e-017 0.000000e+000
      outer loop
         vertex 1.250000e-001 -1.245497e-001 1.060074e-002
         vertex 1.250000e-001 -1.741919e-001 4.535605e-002
         vertex 1.250000e-001 -1.793516e-001 1.526507e-002
      endloop
   endfacet
   facet normal 1.000000e+000 8.692244e-017 0.000000e+000
      outer loop
         vertex 1.250000e-001 -1.245497e-001 1.060074e-002
         vertex 1.250000e-001 -1.793516e-001 1.526507e-002
         vertex 1.250000e-001 -1.245497e-001 -1.060074e-002
      endloop
   endfacet
   facet normal 1.000000e+000 8.692244e-017 0.000000e+000
      outer loop
         vertex 1.250000e-001 -1.245497e-001 -1.060074e-002
         vertex 1.250000e-001 -1.793516e-001 1.526507e-002
         vertex 1.250000e-001 -1.793516e-001 -1.526507e-002
      endloop
   endfacet
   facet normal 1.000000e+000 8.692244e-017 0.000000e+000
      outer loop
         vertex 1.250000e-001 -1.245497e-001 -1.060074e-002
         vertex 1.250000e-001 -1.793516e-001 -1.526507e-002
         vertex 1.250000e-001 -1.209666e-001 -3.149726e-002
      endloop
   endfacet
   facet normal 1.000000e+000 8.692244e-017 0.000000e+000
      outer loop
         vertex 1.250000e-001 -1.209666e-001 -3.149726e-002
         vertex 1.250000e-001 -1.793516e-001 -1.526507e-002
         vertex 1.250000e-001 -1.741919e-001 -4.535605e-002
      endloop
   endfacet
   facet normal 1.000000e+000 8.692244e-017 0.000000e+000
      outer loop
         vertex 1.250000e-001 -1.209666e-001 -3.149726e-002
         vertex 1.250000e-001 -1.741919e-001 -4.535605e-002
         vertex 1.250000e-001 -1.139036e-001 -5.148765e-002
      endloop
   endfacet
   facet normal 1.000000e+000 8.692244e-017 0.000000e+000
      outer loop
         vertex 1.250000e-001 -1.139036e-001 -5.148765e-002
         vertex 1.250000e-001 -1.741919e-001 -4.535605e-002
         vertex 1.250000e-001 -1.640211e-001 -7.414223e-002
      endloop
   endfacet
   facet normal 1.000000e+000 8.692244e-017 0.000000e+000
      outer loop
         vertex 1.250000e-001 -1.139036e-001 -5.148765e-002
         vertex 1.250000e-001 -1.640211e-001 -7.414223e-002
         vertex 1.250000e-001 -1.035637e-001 -6.999685e-002
      endloop
   endfacet
   facet normal 1.000000e+000 8.692244e-017 0.000000e+000
      outer loop
         vertex 1.250000e-001 -1.035637e-001 -6.999685e-002
         vertex 1.250000e-001 -1.640211e-001 -7.414223e-002
         vertex 1.250000e-001 -1.491317e-001 -1.007955e-001
      endloop
   endfacet
   facet normal 1.000000e+000 8.692244e-017 0.000000e+000
      outer loop
         vertex 1.250000e-001 -1.035637e-001 -6.999685e-002
         vertex 1.250000e-001 -1.491317e-001 -1.007955e-001
         vertex 1.250000e-001 -9.024452e-002 -8.649236e-002
      endloop
   endfacet
   facet normal 1.000000e+000 8.692244e-017 0.000000e+000
      outer loop
         vertex 1.250000e-001 -9.024452e-002 -8.649236e-002
         vertex 1.250000e-001 -1.491317e-001 -1.007955e-001
         vertex 1.250000e-001 -1.299521e-001 -1.245490e-001
      endloop
   endfacet
   facet normal 1.000000e+000 8.692244e-017 0.000000e+000
      outer loop
         vertex 1.250000e-001 -9.024452e-002 -8.649236e-002
         vertex 1.250000e-001 -1.299521e-001 -1.245490e-001
         vertex 1.250000e-001 -7.432915e-002 -1.004996e-001
      endloop
   endfacet
   facet normal 1.000000e+000 8.692244e-017 0.000000e+000
      outer loop
         vertex 1.250000e-001 -7.432915e-002 -1.004996e-001
         vertex 1.250000e-001 -1.299521e-001 -1.245490e-001
         vertex 1.250000e-001 -1.070340e-001 -1.447195e-001
      endloop
   endfacet
   facet normal 1.000000e+000 8.692244e-017 0.000000e+000
      outer loop
         vertex 1.250000e-001 -7.432915e-002 -1.004996e-001
         vertex 1.250000e-001 -1.070340e-001 -1.447195e-001
         vertex 1.250000e-001 -5.627547e-002 -1.116157e-001
      endloop
   endfacet
   facet normal 1.000000e+000 8.692244e-017 0.000000e+000
      outer loop
         vertex 1.250000e-001 -5.627547e-002 -1.116157e-001
         vertex 1.250000e-001 -1.070340e-001 -1.447195e-001
         vertex 1.250000e-001 -8.103668e-002 -1.607267e-001
      endloop
   endfacet
   facet normal 1.000000e+000 8.692244e-017 0.000000e+000
      outer loop
         vertex 1.250000e-001 -5.627547e-002 -1.116157e-001
         vertex 1.250000e-001 -8.103668e-002 -1.607267e-001
         vertex 1.250000e-001 -3.660285e-002 -1.195208e-001
      endloop
   endfacet
   facet normal 1.000000e+000 8.692244e-017 0.000000e+000
      outer loop
         vertex 1.250000e-001 -3.660285e-002 -1.195208e-001
         vertex 1.250000e-001 -8.103668e-002 -1.607267e-001
         vertex 1.250000e-001 -5.270810e-002 -1.721100e-001
      endloop
   endfacet
   facet normal 1.000000e+000 8.692244e-017 0.000000e+000
      outer loop
         vertex 1.250000e-001 -3.660285e-002 -1.195208e-001
         vertex 1.250000e-001 -5.270810e-002 -1.721100e-001
         vertex 1.250000e-001 -1.587723e-002 -1.239876e-001
      endloop
   endfacet
   facet normal 1.000000e+000 8.692244e-017 0.000000e+000
      outer loop
         vertex 1.250000e-001 -1.587723e-002 -1.239876e-001
         vertex 1.250000e-001 -5.270810e-002 -1.721100e-001
         vertex 1.250000e-001 -2.286321e-002 -1.785421e-001
      endloop
   endfacet
   facet normal 1.000000e+000 8.692244e-017 0.000000e+000
      outer loop
         vertex 1.250000e-001 -1.587723e-002 -1.239876e-001
         vertex 1.250000e-001 -2.286321e-002 -1.785421e-001
         vertex 1.250000e-001 5.305151e-003 -1.248874e-001
      endloop
   endfacet
   facet normal 1.000000e+000 8.692244e-017 0.000000e+000
      outer loop
         vertex 1.250000e-001 5.305151e-003 -1.248874e-001
         vertex 1.250000e-001 -2.286321e-002 -1.785421e-001
         vertex 1.250000e-001 7.639416e-003 -1.798378e-001
      endloop
   endfacet
   facet normal 1.000000e+000 8.692244e-017 0.000000e+000
      outer loop
         vertex 1.250000e-001 5.305151e-003 -1.248874e-001
         vertex 1.250000e-001 7.639416e-003 -1.798378e-001
         vertex 1.250000e-001 2.633491e-002 -1.221944e-001
      endloop
   endfacet
   facet normal 1.000000e+000 8.692244e-017 0.000000e+000
      outer loop
         vertex 1.250000e-001 2.633491e-002 -1.221944e-001
         vertex 1.250000e-001 7.639416e-003 -1.798378e-001
         vertex 1.250000e-001 3.792227e-002 -1.759599e-001
      endloop
   endfacet
   facet normal 1.000000e+000 8.692244e-017 0.000000e+000
      outer loop
         vertex 1.250000e-001 2.633491e-002 -1.221944e-001
         vertex 1.250000e-001 3.792227e-002 -1.759599e-001
         vertex 1.250000e-001 4.660706e-002 -1.159861e-001
      endloop
   endfacet
   facet normal 1.000000e+000 8.692244e-017 0.000000e+000
      outer loop
         vertex 1.250000e-001 4.660706e-002 -1.159861e-001
         vertex 1.250000e-001 3.792227e-002 -1.759599e-001
         vertex 1.250000e-001 6.711417e-002 -1.670200e-001
      endloop
   endfacet
   facet normal 1.000000e+000 8.692244e-017 0.000000e+000
      outer loop
         vertex 1.250000e-001 4.660706e-002 -1.159861e-001
         vertex 1.250000e-001 6.711417e-002 -1.670200e-001
         vertex 1.250000e-001 6.553841e-002 -1.064411e-001
      endloop
   endfacet
   facet normal 1.000000e+000 8.692244e-017 0.000000e+000
      outer loop
         vertex 1.250000e-001 6.553841e-002 -1.064411e-001
         vertex 1.250000e-001 6.711417e-002 -1.670200e-001
         vertex 1.250000e-001 9.437530e-002 -1.532753e-001
      endloop
   endfacet
   facet normal 1.000000e+000 8.692244e-017 0.000000e+000
      outer loop
         vertex 1.250000e-001 6.553841e-002 -1.064411e-001
         vertex 1.250000e-001 9.437530e-002 -1.532753e-001
         vertex 1.250000e-001 8.258434e-002 -9.383404e-002
      endloop
   endfacet
   facet normal 1.000000e+000 8.692244e-017 0.000000e+000
      outer loop
         vertex 1.250000e-001 8.258434e-002 -9.383404e-002
         vertex 1.250000e-001 9.437530e-002 -1.532753e-001
         vertex 1.250000e-001 1.189215e-001 -1.351210e-001
      endloop
   endfacet
   facet normal 1.000000e+000 8.692244e-017 0.000000e+000
      outer loop
         vertex 1.250000e-001 8.258434e-002 -9.383404e-002
         vertex 1.250000e-001 1.189215e-001 -1.351210e-001
         vertex 1.250000e-001 9.725447e-002 -7.852750e-002
      endloop
   endfacet
   facet normal 1.000000e+000 8.692244e-017 0.000000e+000
      outer loop
         vertex 1.250000e-001 9.725447e-002 -7.852750e-002
         vertex 1.250000e-001 1.189215e-001 -1.351210e-001
         vertex 1.250000e-001 1.400464e-001 -1.130796e-001
      endloop
   endfacet
   facet normal 1.000000e+000 8.692244e-017 0.000000e+000
      outer loop
         vertex 1.250000e-001 9.725447e-002 -7.852750e-002
         vertex 1.250000e-001 1.400464e-001 -1.130796e-001
         vertex 1.250000e-001 1.091268e-001 -6.096187e-002
      endloop
   endfacet
   facet normal 1.000000e+000 8.692244e-017 0.000000e+000
      outer loop
         vertex 1.250000e-001 1.091268e-001 -6.096187e-002
         vertex 1.250000e-001 1.400464e-001 -1.130796e-001
         vertex 1.250000e-001 1.571425e-001 -8.778509e-002
      endloop
   endfacet
   facet normal 1.000000e+000 8.692244e-017 0.000000e+000
      outer loop
         vertex 1.250000e-001 1.091268e-001 -6.096187e-002
         vertex 1.250000e-001 1.571425e-001 -8.778509e-002
         vertex 1.250000e-001 1.178597e-001 -4.164248e-002
      endloop
   endfacet
   facet normal 1.000000e+000 8.692244e-017 0.000000e+000
      outer loop
         vertex 1.250000e-001 1.178597e-001 -4.164248e-002
         vertex 1.250000e-001 1.571425e-001 -8.778509e-002
         vertex 1.250000e-001 1.697179e-001 -5.996516e-002
      endloop
   endfacet
   facet normal 1.000000e+000 8.692244e-017 0.000000e+000
      outer loop
         vertex 1.250000e-001 1.178597e-001 -4.164248e-002
         vertex 1.250000e-001 1.697179e-001 -5.996516e-002
         vertex 1.250000e-001 1.232020e-001 -2.112510e-002
      endloop
   endfacet
   facet normal 1.000000e+000 8.692244e-017 0.000000e+000
      outer loop
         vertex 1.250000e-001 1.232020e-001 -2.112510e-002
         vertex 1.250000e-001 1.697179e-001 -5.996516e-002
         vertex 1.250000e-001 1.774109e-001 -3.042015e-002
      endloop
   endfacet
   facet normal 1.000000e+000 8.692244e-017 0.000000e+000
      outer loop
         vertex 1.250000e-001 1.232020e-001 -2.112510e-002
         vertex 1.250000e-001 1.774109e-001 -3.042015e-002
         vertex 1.250000e-001 1.250000e-001 0.000000e+000
      endloop
   endfacet
   facet normal 1.000000e+000 8.692244e-017 0.000000e+000
      outer loop
         vertex 1.250000e-001 1.250000e-001 0.000000e+000
         vertex 1.250000e-001 1.774109e-001 -3.042015e-002
         vertex 1.250000e-001 1.800000e-001 -4.408729e-017
      endloop
   endfacet
   facet normal 1.000000e+000 8.692244e-017 0.000000e+000
      outer loop
         vertex 1.250000e-001 1.250000e-001 0.000000e+000
         vertex 1.250000e-001 1.800000e-001 -4.408729e-017
         vertex 1.250000e-001 1.232020e-001 2.112510e-002
      endloop
   endfacet
   facet normal 1.000000e+000 8.692244e-017 0.000000e+000
      outer loop
         vertex 1.250000e-001 1.232020e-001 2.112510e-002
         vertex 1.250000e-001 1.800000e-001 -4.408729e-017
         vertex 1.250000e-001 1.774109e-001 3.042015e-002
      endloop
   endfacet
   facet normal -8.636540e-017 9.935917e-001 1.130291e-001
      outer loop
         vertex 1.375000e+000 1.250000e-001 0.000000e+000
         vertex 1.250000e-001 1.232020e-001 2.112510e-002
         vertex 1.375000e+000 1.232020e-001 2.112510e-002
      endloop
   endfacet
   facet normal -8.470502e-017 9.744897e-001 2.244324e-001
      outer loop
         vertex 1.375000e+000 1.232020e-001 2.112510e-002
         vertex 1.250000e-001 1.232020e-001 2.112510e-002
         vertex 1.250000e-001 1.178597e-001 4.164248e-002
      endloop
   endfacet
   facet normal -8.346273e-017 9.601977e-001 2.793211e-001
      outer loop
         vertex 1.375000e+000 1.232020e-001 2.112510e-002
         vertex 1.250000e-001 1.178597e-001 4.164248e-002
         vertex 1.375000e+000 1.178597e-001 4.164248e-002
      endloop
   endfacet
   facet normal -8.018970e-017 9.225433e-001 3.858936e-001
      outer loop
         vertex 1.375000e+000 1.178597e-001 4.164248e-002
         vertex 1.250000e-001 1.178597e-001 4.164248e-002
         vertex 1.250000e-001 1.091268e-001 6.096187e-002
      endloop
   endfacet
   facet normal -7.815897e-017 8.991807e-001 4.375775e-001
      outer loop
         vertex 1.375000e+000 1.178597e-001 4.164248e-002
         vertex 1.250000e-001 1.091268e-001 6.096187e-002
         vertex 1.375000e+000 1.091268e-001 6.096187e-002
      endloop
   endfacet
   facet normal -7.336748e-017 8.440570e-001 5.362535e-001
      outer loop
         vertex 1.375000e+000 1.091268e-001 6.096187e-002
         vertex 1.250000e-001 1.091268e-001 6.096187e-002
         vertex 1.250000e-001 9.725447e-002 7.852750e-002
      endloop
   endfacet
   facet normal -7.060673e-017 8.122959e-001 5.832456e-001
      outer loop
         vertex 1.375000e+000 1.091268e-001 6.096187e-002
         vertex 1.250000e-001 9.725447e-002 7.852750e-002
         vertex 1.375000e+000 9.725447e-002 7.852750e-002
      endloop
   endfacet
   facet normal -6.443462e-017 7.412888e-001 6.711863e-001
      outer loop
         vertex 1.375000e+000 9.725447e-002 7.852750e-002
         vertex 1.250000e-001 9.725447e-002 7.852750e-002
         vertex 1.250000e-001 8.258434e-002 9.383404e-002
      endloop
   endfacet
   facet normal -6.102326e-017 7.020428e-001 7.121348e-001
      outer loop
         vertex 1.375000e+000 9.725447e-002 7.852750e-002
         vertex 1.250000e-001 8.258434e-002 9.383404e-002
         vertex 1.375000e+000 8.258434e-002 9.383404e-002
      endloop
   endfacet
   facet normal -5.364808e-017 6.171949e-001 7.868103e-001
      outer loop
         vertex 1.375000e+000 8.258434e-002 9.383404e-002
         vertex 1.250000e-001 8.258434e-002 9.383404e-002
         vertex 1.250000e-001 6.553841e-002 1.064411e-001
      endloop
   endfacet
   facet normal -4.968426e-017 5.715931e-001 8.205372e-001
      outer loop
         vertex 1.375000e+000 8.258434e-002 9.383404e-002
         vertex 1.250000e-001 6.553841e-002 1.064411e-001
         vertex 1.375000e+000 6.553841e-002 1.064411e-001
      endloop
   endfacet
   facet normal -4.131819e-017 4.753455e-001 8.797992e-001
      outer loop
         vertex 1.375000e+000 6.553841e-002 1.064411e-001
         vertex 1.250000e-001 6.553841e-002 1.064411e-001
         vertex 1.250000e-001 4.660706e-002 1.159861e-001
      endloop
   endfacet
   facet normal -3.691594e-017 4.246998e-001 9.053342e-001
      outer loop
         vertex 1.375000e+000 6.553841e-002 1.064411e-001
         vertex 1.250000e-001 4.660706e-002 1.159861e-001
         vertex 1.375000e+000 4.660706e-002 1.159861e-001
      endloop
   endfacet
   facet normal -2.779965e-017 3.198213e-001 9.474779e-001
      outer loop
         vertex 1.375000e+000 4.660706e-002 1.159861e-001
         vertex 1.250000e-001 4.660706e-002 1.159861e-001
         vertex 1.250000e-001 2.633491e-002 1.221944e-001
      endloop
   endfacet
   facet normal -2.308561e-017 2.655886e-001 9.640865e-001
      outer loop
         vertex 1.375000e+000 4.660706e-002 1.159861e-001
         vertex 1.250000e-001 2.633491e-002 1.221944e-001
         vertex 1.375000e+000 2.633491e-002 1.221944e-001
      endloop
   endfacet
   facet normal -1.348136e-017 1.550965e-001 9.878993e-001
      outer loop
         vertex 1.375000e+000 2.633491e-002 1.221944e-001
         vertex 1.250000e-001 2.633491e-002 1.221944e-001
         vertex 1.250000e-001 5.305151e-003 1.248874e-001
      endloop
   endfacet
   facet normal -8.591152e-018 9.883699e-002 9.951036e-001
      outer loop
         vertex 1.375000e+000 2.633491e-002 1.221944e-001
         vertex 1.250000e-001 5.305151e-003 1.248874e-001
         vertex 1.375000e+000 5.305151e-003 1.248874e-001
      endloop
   endfacet
   facet normal 1.224759e-018 -1.409025e-002 9.999007e-001
      outer loop
         vertex 1.375000e+000 5.305151e-003 1.248874e-001
         vertex 1.250000e-001 5.305151e-003 1.248874e-001
         vertex 1.250000e-001 -1.587723e-002 1.239876e-001
      endloop
   endfacet
   facet normal 6.150460e-018 -7.075802e-002 9.974935e-001
      outer loop
         vertex 1.375000e+000 5.305151e-003 1.248874e-001
         vertex 1.250000e-001 -1.587723e-002 1.239876e-001
         vertex 1.375000e+000 -1.587723e-002 1.239876e-001
      endloop
   endfacet
   facet normal 1.589565e-017 -1.828716e-001 9.831368e-001
      outer loop
         vertex 1.375000e+000 -1.587723e-002 1.239876e-001
         vertex 1.250000e-001 -1.587723e-002 1.239876e-001
         vertex 1.250000e-001 -3.660285e-002 1.195208e-001
      endloop
   endfacet
   facet normal 2.071513e-017 -2.383175e-001 9.711873e-001
      outer loop
         vertex 1.375000e+000 -1.587723e-002 1.239876e-001
         vertex 1.250000e-001 -3.660285e-002 1.195208e-001
         vertex 1.375000e+000 -3.660285e-002 1.195208e-001
      endloop
   endfacet
   facet normal 3.010925e-017 -3.463921e-001 9.380898e-001
      outer loop
         vertex 1.375000e+000 -3.660285e-002 1.195208e-001
         vertex 1.250000e-001 -3.660285e-002 1.195208e-001
         vertex 1.250000e-001 -5.627547e-002 1.116157e-001
      endloop
   endfacet
   facet normal 3.468387e-017 -3.990209e-001 9.169418e-001
      outer loop
         vertex 1.375000e+000 -3.660285e-002 1.195208e-001
         vertex 1.250000e-001 -5.627547e-002 1.116157e-001
         vertex 1.375000e+000 -5.627547e-002 1.116157e-001
      endloop
   endfacet
   facet normal 4.345665e-017 -4.999475e-001 8.660557e-001
      outer loop
         vertex 1.375000e+000 -5.627547e-002 1.116157e-001
         vertex 1.250000e-001 -5.627547e-002 1.116157e-001
         vertex 1.250000e-001 -7.432915e-002 1.004996e-001
      endloop
   endfacet
   facet normal 4.765481e-017 -5.482453e-001 8.363176e-001
      outer loop
         vertex 1.375000e+000 -5.627547e-002 1.116157e-001
         vertex 1.250000e-001 -7.432915e-002 1.004996e-001
         vertex 1.375000e+000 -7.432915e-002 1.004996e-001
      endloop
   endfacet
   facet normal 5.555389e-017 -6.391203e-001 7.691067e-001
      outer loop
         vertex 1.375000e+000 -7.432915e-002 1.004996e-001
         vertex 1.250000e-001 -7.432915e-002 1.004996e-001
         vertex 1.250000e-001 -9.024452e-002 8.649236e-002
      endloop
   endfacet
   facet normal 5.925482e-017 -6.816977e-001 7.316340e-001
      outer loop
         vertex 1.375000e+000 -7.432915e-002 1.004996e-001
         vertex 1.250000e-001 -9.024452e-002 8.649236e-002
         vertex 1.375000e+000 -9.024452e-002 8.649236e-002
      endloop
   endfacet
   facet normal 6.605295e-017 -7.599069e-001 6.500320e-001
      outer loop
         vertex 1.375000e+000 -9.024452e-002 8.649236e-002
         vertex 1.250000e-001 -9.024452e-002 8.649236e-002
         vertex 1.250000e-001 -1.035637e-001 6.999685e-002
      endloop
   endfacet
   facet normal 6.915017e-017 -7.955388e-001 6.059027e-001
      outer loop
         vertex 1.375000e+000 -9.024452e-002 8.649236e-002
         vertex 1.250000e-001 -1.035637e-001 6.999685e-002
         vertex 1.375000e+000 -1.035637e-001 6.999685e-002
      endloop
   endfacet
   facet normal 7.465179e-017 -8.588322e-001 5.122570e-001
      outer loop
         vertex 1.375000e+000 -1.035637e-001 6.999685e-002
         vertex 1.250000e-001 -1.035637e-001 6.999685e-002
         vertex 1.250000e-001 -1.139036e-001 5.148765e-002
      endloop
   endfacet
   facet normal 7.705620e-017 -8.864937e-001 4.627406e-001
      outer loop
         vertex 1.375000e+000 -1.035637e-001 6.999685e-002
         vertex 1.250000e-001 -1.139036e-001 5.148765e-002
         vertex 1.375000e+000 -1.139036e-001 5.148765e-002
      endloop
   endfacet
   facet normal 8.110303e-017 -9.330506e-001 3.597453e-001
      outer loop
         vertex 1.375000e+000 -1.139036e-001 5.148765e-002
         vertex 1.250000e-001 -1.139036e-001 5.148765e-002
         vertex 1.250000e-001 -1.209666e-001 3.149726e-002
      endloop
   endfacet
   facet normal 8.274546e-017 -9.519458e-001 3.062663e-001
      outer loop
         vertex 1.375000e+000 -1.139036e-001 5.148765e-002
         vertex 1.250000e-001 -1.209666e-001 3.149726e-002
         vertex 1.375000e+000 -1.209666e-001 3.149726e-002
      endloop
   endfacet
   facet normal 8.522108e-017 -9.804267e-001 1.968844e-001
      outer loop
         vertex 1.375000e+000 -1.209666e-001 3.149726e-002
         vertex 1.250000e-001 -1.209666e-001 3.149726e-002
         vertex 1.250000e-001 -1.245497e-001 1.060074e-002
      endloop
   endfacet
   facet normal 8.605428e-017 -9.900123e-001 1.409813e-001
      outer loop
         vertex 1.375000e+000 -1.209666e-001 3.149726e-002
         vertex 1.250000e-001 -1.245497e-001 1.060074e-002
         vertex 1.375000e+000 -1.245497e-001 1.060074e-002
      endloop
   endfacet
   facet normal 8.688747e-017 -9.995977e-001 2.835944e-002
      outer loop
         vertex 1.375000e+000 -1.245497e-001 1.060074e-002
         vertex 1.250000e-001 -1.245497e-001 1.060074e-002
         vertex 1.250000e-001 -1.245497e-001 -1.060074e-002
      endloop
   endfacet
   facet normal 8.688747e-017 -9.995977e-001 -2.835944e-002
      outer loop
         vertex 1.375000e+000 -1.245497e-001 1.060074e-002
         vertex 1.250000e-001 -1.245497e-001 -1.060074e-002
         vertex 1.375000e+000 -1.245497e-001 -1.060074e-002
      endloop
   endfacet
   facet normal 8.605427e-017 -9.900123e-001 -1.409813e-001
      outer loop
         vertex 1.375000e+000 -1.245497e-001 -1.060074e-002
         vertex 1.250000e-001 -1.245497e-001 -1.060074e-002
         vertex 1.250000e-001 -1.209666e-001 -3.149726e-002
      endloop
   endfacet
   facet normal 8.522108e-017 -9.804267e-001 -1.968844e-001
      outer loop
         vertex 1.375000e+000 -1.245497e-001 -1.060074e-002
         vertex 1.250000e-001 -1.209666e-001 -3.149726e-002
         vertex 1.375000e+000 -1.209666e-001 -3.149726e-002
      endloop
   endfacet
   facet normal 8.274546e-017 -9.519458e-001 -3.062663e-001
      outer loop
         vertex 1.375000e+000 -1.209666e-001 -3.149726e-002
         vertex 1.250000e-001 -1.209666e-001 -3.149726e-002
         vertex 1.250000e-001 -1.139036e-001 -5.148765e-002
      endloop
   endfacet
   facet normal 8.110303e-017 -9.330506e-001 -3.597453e-001
      outer loop
         vertex 1.375000e+000 -1.209666e-001 -3.149726e-002
         vertex 1.250000e-001 -1.139036e-001 -5.148765e-002
         vertex 1.375000e+000 -1.139036e-001 -5.148765e-002
      endloop
   endfacet
   facet normal 7.705620e-017 -8.864937e-001 -4.627406e-001
      outer loop
         vertex 1.375000e+000 -1.139036e-001 -5.148765e-002
         vertex 1.250000e-001 -1.139036e-001 -5.148765e-002
         vertex 1.250000e-001 -1.035637e-001 -6.999685e-002
      endloop
   endfacet
   facet normal 7.465178e-017 -8.588322e-001 -5.122570e-001
      outer loop
         vertex 1.375000e+000 -1.139036e-001 -5.148765e-002
         vertex 1.250000e-001 -1.035637e-001 -6.999685e-002
         vertex 1.375000e+000 -1.035637e-001 -6.999685e-002
      endloop
   endfacet
   facet normal 6.915017e-017 -7.955388e-001 -6.059027e-001
      outer loop
         vertex 1.375000e+000 -1.035637e-001 -6.999685e-002
         vertex 1.250000e-001 -1.035637e-001 -6.999685e-002
         vertex 1.250000e-001 -9.024452e-002 -8.649236e-002
      endloop
   endfacet
   facet normal 6.605295e-017 -7.599069e-001 -6.500320e-001
      outer loop
         vertex 1.375000e+000 -1.035637e-001 -6.999685e-002
         vertex 1.250000e-001 -9.024452e-002 -8.649236e-002
         vertex 1.375000e+000 -9.024452e-002 -8.649236e-002
      endloop
   endfacet
   facet normal 5.925482e-017 -6.816977e-001 -7.316340e-001
      outer loop
         vertex 1.375000e+000 -9.024452e-002 -8.649236e-002
         vertex 1.250000e-001 -9.024452e-002 -8.649236e-002
         vertex 1.250000e-001 -7.432915e-002 -1.004996e-001
      endloop
   endfacet
   facet normal 5.555389e-017 -6.391203e-001 -7.691067e-001
      outer loop
         vertex 1.375000e+000 -9.024452e-002 -8.649236e-002
         vertex 1.250000e-001 -7.432915e-002 -1.004996e-001
         vertex 1.375000e+000 -7.432915e-002 -1.004996e-001
      endloop
   endfacet
   facet normal 4.765481e-017 -5.482453e-001 -8.363176e-001
      outer loop
         vertex 1.375000e+000 -7.432915e-002 -1.004996e-001
         vertex 1.250000e-001 -7.432915e-002 -1.004996e-001
         vertex 1.250000e-001 -5.627547e-002 -1.116157e-001
      endloop
   endfacet
   facet normal 4.345665e-017 -4.999475e-001 -8.660557e-001
      outer loop
         vertex 1.375000e+000 -7.432915e-002 -1.004996e-001
         vertex 1.250000e-001 -5.627547e-002 -1.116157e-001
         vertex 1.375000e+000 -5.627547e-002 -1.116157e-001
      endloop
   endfacet
   facet normal 3.468387e-017 -3.990209e-001 -9.169418e-001
      outer loop
         vertex 1.375000e+000 -5.627547e-002 -1.116157e-001
         vertex 1.250000e-001 -5.627547e-002 -1.116157e-001
         vertex 1.250000e-001 -3.660285e-002 -1.195208e-001
      endloop
   endfacet
   facet normal 3.010925e-017 -3.463921e-001 -9.380898e-001
      outer loop
         vertex 1.375000e+000 -5.627547e-002 -1.116157e-001
         vertex 1.250000e-001 -3.660285e-002 -1.195208e-001
         vertex 1.375000e+000 -3.660285e-002 -1.195208e-001
      endloop
   endfacet
   facet normal 2.071513e-017 -2.383175e-001 -9.711873e-001
      outer loop
         vertex 1.375000e+000 -3.660285e-002 -1.195208e-001
         vertex 1.250000e-001 -3.660285e-002 -1.195208e-001
         vertex 1.250000e-001 -1.587723e-002 -1.239876e-001
      endloop
   endfacet
   facet normal 1.589565e-017 -1.828716e-001 -9.831368e-001
      outer loop
         vertex 1.375000e+000 -3.660285e-002 -1.195208e-001
         vertex 1.250000e-001 -1.587723e-002 -1.239876e-001
         vertex 1.375000e+000 -1.587723e-002 -1.239876e-001
      endloop
   endfacet
   facet normal 6.150459e-018 -7.075802e-002 -9.974935e-001
      outer loop
         vertex 1.375000e+000 -1.587723e-002 -1.239876e-001
         vertex 1.250000e-001 -1.587723e-002 -1.239876e-001
         vertex 1.250000e-001 5.305151e-003 -1.248874e-001
      endloop
   endfacet
   facet normal 1.224759e-018 -1.409025e-002 -9.999007e-001
      outer loop
         vertex 1.375000e+000 -1.587723e-002 -1.239876e-001
         vertex 1.250000e-001 5.305151e-003 -1.248874e-001
         vertex 1.375000e+000 5.305151e-003 -1.248874e-001
      endloop
   endfacet
   facet normal -8.591152e-018 9.883699e-002 -9.951036e-001
      outer loop
         vertex 1.375000e+000 5.305151e-003 -1.248874e-001
         vertex 1.250000e-001 5.305151e-003 -1.248874e-001
         vertex 1.250000e-001 2.633491e-002 -1.221944e-001
      endloop
   endfacet
   facet normal -1.348136e-017 1.550965e-001 -9.878993e-001
      outer loop
         vertex 1.375000e+000 5.305151e-003 -1.248874e-001
         vertex 1.250000e-001 2.633491e-002 -1.221944e-001
         vertex 1.375000e+000 2.633491e-002 -1.221944e-001
      endloop
   endfacet
   facet normal -2.308561e-017 2.655886e-001 -9.640865e-001
      outer loop
         vertex 1.375000e+000 2.633491e-002 -1.221944e-001
         vertex 1.250000e-001 2.633491e-002 -1.221944e-001
         vertex 1.250000e-001 4.660706e-002 -1.159861e-001
      endloop
   endfacet
   facet normal -2.779965e-017 3.198213e-001 -9.474779e-001
      outer loop
         vertex 1.375000e+000 2.633491e-002 -1.221944e-001
         vertex 1.250000e-001 4.660706e-002 -1.159861e-001
         vertex 1.375000e+000 4.660706e-002 -1.159861e-001
      endloop
   endfacet
   facet normal -3.691594e-017 4.246998e-001 -9.053342e-001
      outer loop
         vertex 1.375000e+000 4.660706e-002 -1.159861e-001
         vertex 1.250000e-001 4.660706e-002 -1.159861e-001
         vertex 1.250000e-001 6.553841e-002 -1.064411e-001
      endloop
   endfacet
   facet normal -4.131819e-017 4.753455e-001 -8.797992e-001
      outer loop
         vertex 1.375000e+000 4.660706e-002 -1.159861e-001
         vertex 1.250000e-001 6.553841e-002 -1.064411e-001
         vertex 1.375000e+000 6.553841e-002 -1.064411e-001
      endloop
   endfacet
   facet normal -4.968426e-017 5.715931e-001 -8.205372e-001
      outer loop
         vertex 1.375000e+000 6.553841e-002 -1.064411e-001
         vertex 1.250000e-001 6.553841e-002 -1.064411e-001
         vertex 1.250000e-001 8.258434e-002 -9.383404e-002
      endloop
   endfacet
   facet normal -5.364808e-017 6.171949e-001 -7.868103e-001
      outer loop
         vertex 1.375000e+000 6.553841e-002 -1.064411e-001
         vertex 1.250000e-001 8.258434e-002 -9.383404e-002
         vertex 1.375000e+000 8.258434e-002 -9.383404e-002
      endloop
   endfacet
   facet normal -6.102326e-017 7.020428e-001 -7.121348e-001
      outer loop
         vertex 1.375000e+000 8.258434e-002 -9.383404e-002
         vertex 1.250000e-001 8.258434e-002 -9.383404e-002
         vertex 1.250000e-001 9.725447e-002 -7.852750e-002
      endloop
   endfacet
   facet normal -6.443462e-017 7.412888e-001 -6.711863e-001
      outer loop
         vertex 1.375000e+000 8.258434e-002 -9.383404e-002
         vertex 1.250000e-001 9.725447e-002 -7.852750e-002
         vertex 1.375000e+000 9.725447e-002 -7.852750e-002
      endloop
   endfacet
   facet normal -7.060673e-017 8.122959e-001 -5.832456e-001
      outer loop
         vertex 1.375000e+000 9.725447e-002 -7.852750e-002
         vertex 1.250000e-001 9.725447e-002 -7.852750e-002
         vertex 1.250000e-001 1.091268e-001 -6.096187e-002
      endloop
   endfacet
   facet normal -7.336748e-017 8.440570e-001 -5.362535e-001
      outer loop
         vertex 1.375000e+000 9.725447e-002 -7.852750e-002
         vertex 1.250000e-001 1.091268e-001 -6.096187e-002
         vertex 1.375000e+000 1.091268e-001 -6.096187e-002
      endloop
   endfacet
   facet normal -7.815897e-017 8.991807e-001 -4.375775e-001
      outer loop
         vertex 1.375000e+000 1.091268e-001 -6.096187e-002
         vertex 1.250000e-001 1.091268e-001 -6.096187e-002
         vertex 1.250000e-001 1.178597e-001 -4.164248e-002
      endloop
   endfacet
   facet normal -8.018970e-017 9.225433e-001 -3.858936e-001
      outer loop
         vertex 1.375000e+000 1.091268e-001 -6.096187e-002
         vertex 1.250000e-001 1.178597e-001 -4.164248e-002
         vertex 1.375000e+000 1.178597e-001 -4.164248e-002
      endloop
   endfacet
   facet normal -8.346273e-017 9.601977e-001 -2.793211e-001
      outer loop
         vertex 1.375000e+000 1.178597e-001 -4.164248e-002
         vertex 1.250000e-001 1.178597e-001 -4.164248e-002
         vertex 1.250000e-001 1.232020e-001 -2.112510e-002
      endloop
   endfacet
   facet normal -8.470502e-017 9.744897e-001 -2.244324e-001
      outer loop
         vertex 1.375000e+000 1.178597e-001 -4.164248e-002
         vertex 1.250000e-001 1.232020e-001 -2.112510e-002
         vertex 1.375000e+000 1.232020e-001 -2.112510e-002
      endloop
   endfacet
   facet normal -8.636540e-017 9.935917e-001 -1.130291e-001
      outer loop
         vertex 1.375000e+000 1.232020e-001 -2.112510e-002
         vertex 1.250000e-001 1.232020e-001 -2.112510e-002
         vertex 1.250000e-001 1.250000e-001 0.000000e+000
      endloop
   endfacet
   facet normal -8.678351e-017 9.984018e-001 -5.651454e-002
      outer loop
         vertex 1.375000e+000 1.232020e-001 -2.112510e-002
         vertex 1.250000e-001 1.250000e-001 0.000000e+000
         vertex 1.375000e+000 1.250000e-001 0.000000e+000
      endloop
   endfacet
   facet normal -8.678351e-017 9.984018e-001 5.651454e-002
      outer loop
         vertex 1.375000e+000 1.250000e-001 0.000000e+000
         vertex 1.250000e-001 1.250000e-001 0.000000e+000
         vertex 1.250000e-001 1.232020e-001 2.112510e-002
      endloop
   endfacet
   facet normal 1.000000e+000 8.692244e-017 0.000000e+000
      outer loop
         vertex 1.375000e+000 1.250000e-001 -3.061617e-017
         vertex 1.375000e+000 1.232020e-001 2.112510e-002
         vertex 1.375000e+000 1.195183e-016 0.000000e+000
      endloop
   endfacet
   facet normal 1.000000e+000 8.692244e-017 0.000000e+000
      outer loop
         vertex 1.375000e+000 1.091268e-001 -6.096187e-002
         vertex 1.375000e+000 1.178597e-001 -4.164248e-002
         vertex 1.375000e+000 1.195183e-016 0.000000e+000
      endloop
   endfacet
   facet normal 1.000000e+000 8.692244e-017 0.000000e+000
      outer loop
         vertex 1.375000e+000 1.195183e-016 0.000000e+000
         vertex 1.375000e+000 1.178597e-001 -4.164248e-002
         vertex 1.375000e+000 1.232020e-001 -2.112510e-002
      endloop
   endfacet
   facet normal 1.000000e+000 8.692244e-017 0.000000e+000
      outer loop
         vertex 1.375000e+000 1.195183e-016 0.000000e+000
         vertex 1.375000e+000 1.232020e-001 -2.112510e-002
         vertex 1.375000e+000 1.250000e-001 -3.061617e-017
      endloop
   endfacet
   facet normal 1.000000e+000 8.692244e-017 0.000000e+000
      outer loop
         vertex 1.375000e+000 6.553841e-002 -1.064411e-001
         vertex 1.375000e+000 8.258434e-002 -9.383404e-002
         vertex 1.375000e+000 1.195183e-016 0.000000e+000
      endloop
   endfacet
   facet normal 1.000000e+000 8.692244e-017 0.000000e+000
      outer loop
         vertex 1.375000e+000 1.195183e-016 0.000000e+000
         vertex 1.375000e+000 8.258434e-002 -9.383404e-002
         vertex 1.375000e+000 9.725447e-002 -7.852750e-002
      endloop
   endfacet
   facet normal 1.000000e+000 8.692244e-017 0.000000e+000
      outer loop
         vertex 1.375000e+000 1.195183e-016 0.000000e+000
         vertex 1.375000e+000 9.725447e-002 -7.852750e-002
         vertex 1.375000e+000 1.091268e-001 -6.096187e-002
      endloop
   endfacet
   facet normal 1.000000e+000 8.692244e-017 0.000000e+000
      outer loop
         vertex 1.375000e+000 5.305151e-003 -1.248874e-001
         vertex 1.375000e+000 2.633491e-002 -1.221944e-001
         vertex 1.375000e+000 1.195183e-016 0.000000e+000
      endloop
   endfacet
   facet normal 1.000000e+000 8.692244e-017 0.000000e+000
      outer loop
         vertex 1.375000e+000 1.195183e-016 0.000000e+000
         vertex 1.375000e+000 2.633491e-002 -1.221944e-001
         vertex 1.375000e+000 4.660706e-002 -1.159861e-001
      endloop
   endfacet
   facet normal 1.000000e+000 8.692244e-017 0.000000e+000
      outer loop
         vertex 1.375000e+000 1.195183e-016 0.000000e+000
         vertex 1.375000e+000 4.660706e-002 -1.159861e-001
         vertex 1.375000e+000 6.553841e-002 -1.064411e-001
      endloop
   endfacet
   facet normal 1.000000e+000 8.692244e-017 0.000000e+000
      outer loop
         vertex 1.375000e+000 -5.627547e-002 -1.116157e-001
         vertex 1.375000e+000 -3.660285e-002 -1.195208e-001
         vertex 1.375000e+000 1.195183e-016 0.000000e+000
      endloop
   endfacet
   facet normal 1.000000e+000 8.692244e-017 0.000000e+000
      outer loop
         vertex 1.375000e+000 1.195183e-016 0.000000e+000
         vertex 1.375000e+000 -3.660285e-002 -1.195208e-001
         vertex 1.375000e+000 -1.587723e-002 -1.239876e-001
      endloop
   endfacet
   facet normal 1.000000e+000 8.692244e-017 0.000000e+000
      outer loop
         vertex 1.375000e+000 1.195183e-016 0.000000e+000
         vertex 1.375000e+000 -1.587723e-002 -1.239876e-001
         vertex 1.375000e+000 5.305151e-003 -1.248874e-001
      endloop
   endfacet
   facet normal 1.000000e+000 8.692244e-017 0.000000e+000
      outer loop
         vertex 1.375000e+000 -1.035637e-001 -6.999685e-002
         vertex 1.375000e+000 -9.024452e-002 -8.649236e-002
         vertex 1.375000e+000 1.195183e-016 0.000000e+000
      endloop
   endfacet
   facet normal 1.000000e+000 8.692244e-017 0.000000e+000
      outer loop
         vertex 1.375000e+000 1.195183e-016 0.000000e+000
         vertex 1.375000e+000 -9.024452e-002 -8.649236e-002
         vertex 1.375000e+000 -7.432915e-002 -1.004996e-001
      endloop
   endfacet
   facet normal 1.000000e+000 8.692244e-017 0.000000e+000
      outer loop
         vertex 1.375000e+000 1.195183e-016 0.000000e+000
         vertex 1.375000e+000 -7.432915e-002 -1.004996e-001
         vertex 1.375000e+000 -5.627547e-002 -1.116157e-001
      endloop
   endfacet
   facet normal 1.000000e+000 8.692244e-017 0.000000e+000
      outer loop
         vertex 1.375000e+000 -1.245497e-001 -1.060074e-002
         vertex 1.375000e+000 -1.209666e-001 -3.149726e-002
         vertex 1.375000e+000 1.195183e-016 0.000000e+000
      endloop
   endfacet
   facet normal 1.000000e+000 8.692244e-017 0.000000e+000
      outer loop
         vertex 1.375000e+000 1.195183e-016 0.000000e+000
         vertex 1.375000e+000 -1.209666e-001 -3.149726e-002
         vertex 1.375000e+000 -1.139036e-001 -5.148765e-002
      endloop
   endfacet
   facet normal 1.000000e+000 8.692244e-017 0.000000e+000
      outer loop
         vertex 1.375000e+000 1.195183e-016 0.000000e+000
         vertex 1.375000e+000 -1.139036e-001 -5.148765e-002
         vertex 1.375000e+000 -1.035637e-001 -6.999685e-002
      endloop
   endfacet
   facet normal 1.000000e+000 8.692244e-017 0.000000e+000
      outer loop
         vertex 1.375000e+000 -1.139036e-001 5.148765e-002
         vertex 1.375000e+000 -1.209666e-001 3.149726e-002
         vertex 1.375000e+000 1.195183e-016 0.000000e+000
      endloop
   endfacet
   facet normal 1.000000e+000 8.692244e-017 0.000000e+000
      outer loop
         vertex 1.375000e+000 1.195183e-016 0.000000e+000
         vertex 1.375000e+000 -1.209666e-001 3.149726e-002
         vertex 1.375000e+000 -1.245497e-001 1.060074e-002
      endloop
   endfacet
   facet normal 1.000000e+000 8.692244e-017 0.000000e+000
      outer loop
         vertex 1.375000e+000 1.195183e-016 0.000000e+000
         vertex 1.375000e+000 -1.245497e-001 1.060074e-002
         vertex 1.375000e+000 -1.245497e-001 -1.060074e-002
      endloop
   endfacet
   facet normal 1.000000e+000 8.692244e-017 0.000000e+000
      outer loop
         vertex 1.375000e+000 -7.432915e-002 1.004996e-001
         vertex 1.375000e+000 -9.024452e-002 8.649236e-002
         vertex 1.375000e+000 1.195183e-016 0.000000e+000
      endloop
   endfacet
   facet normal 1.000000e+000 8.692244e-017 0.000000e+000
      outer loop
         vertex 1.375000e+000 1.195183e-016 0.000000e+000
         vertex 1.375000e+000 -9.024452e-002 8.649236e-002
         vertex 1.375000e+000 -1.035637e-001 6.999685e-002
      endloop
   endfacet
   facet normal 1.000000e+000 8.692244e-017 0.000000e+000
      outer loop
         vertex 1.375000e+000 1.195183e-016 0.000000e+000
         vertex 1.375000e+000 -1.035637e-001 6.999685e-002
         vertex 1.375000e+000 -1.139036e-001 5.148765e-002
      endloop
   endfacet
   facet normal 1.000000e+000 8.692244e-017 0.000000e+000
      outer loop
         vertex 1.375000e+000 -1.587723e-002 1.239876e-001
         vertex 1.375000e+000 -3.660285e-002 1.195208e-001
         vertex 1.375000e+000 1.195183e-016 0.000000e+000
      endloop
   endfacet
   facet normal 1.000000e+000 8.692244e-017 0.000000e+000
      outer loop
         vertex 1.375000e+000 1.195183e-016 0.000000e+000
         vertex 1.375000e+000 -3.660285e-002 1.195208e-001
         vertex 1.375000e+000 -5.627547e-002 1.116157e-001
      endloop
   endfacet
   facet normal 1.000000e+000 8.692244e-017 0.000000e+000
      outer loop
         vertex 1.375000e+000 1.195183e-016 0.000000e+000
         vertex 1.375000e+000 -5.627547e-002 1.116157e-001
         vertex 1.375000e+000 -7.432915e-002 1.004996e-001
      endloop
   endfacet
   facet normal 1.000000e+000 8.692244e-017 0.000000e+000
      outer loop
         vertex 1.375000e+000 4.660706e-002 1.159861e-001
         vertex 1.375000e+000 2.633491e-002 1.221944e-001
         vertex 1.375000e+000 1.195183e-016 0.000000e+000
      endloop
   endfacet
   facet normal 1.000000e+000 8.692244e-017 0.000000e+000
      outer loop
         vertex 1.375000e+000 1.195183e-016 0.000000e+000
         vertex 1.375000e+000 2.633491e-002 1.221944e-001
         vertex 1.375000e+000 5.305151e-003 1.248874e-001
      endloop
   endfacet
   facet normal 1.000000e+000 8.692244e-017 0.000000e+000
      outer loop
         vertex 1.375000e+000 1.195183e-016 0.000000e+000
         vertex 1.375000e+000 5.305151e-003 1.248874e-001
         vertex 1.375000e+000 -1.587723e-002 1.239876e-001
      endloop
   endfacet
   facet normal 1.000000e+000 8.692244e-017 0.000000e+000
      outer loop
         vertex 1.375000e+000 9.725447e-002 7.852750e-002
         vertex 1.375000e+000 8.258434e-002 9.383404e-002
         vertex 1.375000e+000 1.195183e-016 0.000000e+000
      endloop
   endfacet
   facet normal 1.000000e+000 8.692244e-017 0.000000e+000
      outer loop
         vertex 1.375000e+000 1.195183e-016 0.000000e+000
         vertex 1.375000e+000 8.258434e-002 9.383404e-002
         vertex 1.375000e+000 6.553841e-002 1.064411e-001
      endloop
   endfacet
   facet normal 1.000000e+000 8.692244e-017 0.000000e+000
      outer loop
         vertex 1.375000e+000 1.195183e-016 0.000000e+000
         vertex 1.375000e+000 6.553841e-002 1.064411e-001
         vertex 1.375000e+000 4.660706e-002 1.159861e-001
      endloop
   endfacet
   facet normal 1.000000e+000 8.692244e-017 0.000000e+000
      outer loop
         vertex 1.375000e+000 1.232020e-001 2.112510e-002
         vertex 1.375000e+000 1.178597e-001 4.164248e-002
         vertex 1.375000e+000 1.195183e-016 0.000000e+000
      endloop
   endfacet
   facet normal 1.000000e+000 8.692244e-017 0.000000e+000
      outer loop
         vertex 1.375000e+000 1.195183e-016 0.000000e+000
         vertex 1.375000e+000 1.178597e-001 4.164248e-002
         vertex 1.375000e+000 1.091268e-001 6.096187e-002
      endloop
   endfacet
   facet normal 1.000000e+000 8.692244e-017 0.000000e+000
      outer loop
         vertex 1.375000e+000 1.195183e-016 0.000000e+000
         vertex 1.375000e+000 1.091268e-001 6.096187e-002
         vertex 1.375000e+000 9.725447e-002 7.852750e-002
      endloop
   endfacet
endsolid